<?xml version="1.0" encoding="UTF-8" standalone="no"?>
<!-- Created with Inkscape (http://www.inkscape.org/) -->

<svg
   xmlns:dc="http://purl.org/dc/elements/1.1/"
   xmlns:cc="http://creativecommons.org/ns#"
   xmlns:rdf="http://www.w3.org/1999/02/22-rdf-syntax-ns#"
   xmlns:svg="http://www.w3.org/2000/svg"
   xmlns="http://www.w3.org/2000/svg"
   xmlns:sodipodi="http://sodipodi.sourceforge.net/DTD/sodipodi-0.dtd"
   xmlns:inkscape="http://www.inkscape.org/namespaces/inkscape"
   width="278.24252mm"
   height="220.06485mm"
   viewBox="0 0 985.8987 779.75734"
   id="svg2"
   version="1.1"
   inkscape:version="0.91 r13725"
   sodipodi:docname="horse.svg">
  <defs
     id="defs4" />
  <sodipodi:namedview
     id="base"
     pagecolor="#ffffff"
     bordercolor="#666666"
     borderopacity="1.0"
     inkscape:pageopacity="0.0"
     inkscape:pageshadow="2"
     inkscape:zoom="0.7"
     inkscape:cx="712.14286"
     inkscape:cy="479.43404"
     inkscape:document-units="px"
     inkscape:current-layer="layer1"
     showgrid="false"
     fit-margin-top="0"
     fit-margin-left="0"
     fit-margin-right="0"
     fit-margin-bottom="0"
     inkscape:window-width="1642"
     inkscape:window-height="1021"
     inkscape:window-x="0"
     inkscape:window-y="0"
     inkscape:window-maximized="1" />
  <metadata
     id="metadata7">
    <rdf:RDF>
      <cc:Work
         rdf:about="">
        <dc:format>image/svg+xml</dc:format>
        <dc:type
           rdf:resource="http://purl.org/dc/dcmitype/StillImage" />
        <dc:title></dc:title>
      </cc:Work>
    </rdf:RDF>
  </metadata>
  <g
     inkscape:label="Layer 1"
     inkscape:groupmode="layer"
     id="layer1"
     transform="translate(829.83524,-1029.8042)">
    <path
       style="fill:#784421;fill-rule:evenodd;stroke:#000000;stroke-width:1px;stroke-linecap:butt;stroke-linejoin:miter;stroke-opacity:1"
       d="m -94.954339,1088.7277 c 0,0 11.111678,-49.4975 22.223356,-57.5787 11.111678,-8.0812 15.152288,43.4366 15.152288,43.4366 0,0 -5.050763,-37.3757 0,-39.396 5.050763,-2.0203 22.223356,40.4061 22.223356,40.4061 z"
       id="path4154"
       inkscape:connector-curvature="0" />
    <path
       style="fill:#784421;fill-rule:evenodd;stroke:#000000;stroke-width:1px;stroke-linecap:butt;stroke-linejoin:miter;stroke-opacity:1"
       d="m -493.9646,1285.7074 c 180.95482,-13.1804 158.59395,91.9239 271.73104,5.0508 113.13708,-86.8731 42.4264,-151.5229 107.07617,-195.9696 64.649763,-44.4467 153.543187,-22.2234 169.705623,22.2233 16.16245,44.4467 101.015257,121.2183 101.015257,139.4011 0,18.1827 -36.36549,64.6498 -50.50763,58.5888 -14.142127,-6.0609 -98.9949451,-64.6497 -98.9949451,-46.467 0,18.1828 -58.5888469,74.7513 -60.6091519,133.3402 -2.020305,58.5888 -12.121831,105.0558 -34.345187,127.2792 -22.223356,22.2233 44.446712,256.5787 38.385797,264.6599 -6.060915,8.0813 -40.406102,14.1422 -52.527933,2.0203 -12.12183,-12.1218 -28.28427,-119.198 -40.4061,-135.3604 -12.12183,-16.1624 -50.50763,-135.3604 -50.50763,-135.3604 0,0 24.24366,88.8934 30.30457,147.4822 6.06092,58.5889 20.20306,115.1574 10.10153,125.259 -10.10153,10.1015 -44.44671,18.1827 -50.50763,2.0203 -6.06091,-16.1625 0,-92.9341 -10.10152,-107.0762 -10.10153,-14.1421 -48.48732,-147.4823 -48.48732,-147.4823 0,0 2.0203,60.6092 -76.7716,68.6904 -78.7919,8.0812 -238.396,-72.731 -238.396,-72.731 0,0 14.14214,30.3046 30.30458,84.8528 16.16244,54.5483 34.34518,155.5635 16.16244,157.5838 -18.18275,2.0203 -42.42641,18.1828 -42.42641,-12.1218 0,-30.3046 -56.56854,-232.3351 -56.56854,-210.1117 0,22.2233 12.12183,38.3858 8.08122,88.8934 -4.04061,50.5076 8.08122,143.4416 -6.06092,143.4416 -14.14213,0 -46.46701,22.2234 -52.52793,-4.0406 -6.06091,-26.2639 -28.28427,-185.868 -36.36549,-232.3351 -8.08122,-46.467 -34.34518,-227.2843 24.24366,-243.4467 58.58885,-16.1625 102.14873,-21.2298 199.00005,-28.2843 z"
       id="path4146"
       inkscape:connector-curvature="0"
       sodipodi:nodetypes="sssssssssssscsssscscssssssssss" />
    <ellipse
       style="opacity:0.98000004;fill:#000000;fill-opacity:1;stroke:none;stroke-width:25.79999924;stroke-linecap:round;stroke-linejoin:bevel;stroke-miterlimit:4;stroke-dasharray:none"
       id="path4148"
       cx="133.84521"
       cy="1267.8416"
       rx="9.5964489"
       ry="10.101525" />
    <ellipse
       style="opacity:0.98000004;fill:#2b1100;fill-opacity:1;stroke:none;stroke-width:25.79999924;stroke-linecap:round;stroke-linejoin:bevel;stroke-miterlimit:4;stroke-dasharray:none"
       id="path4152"
       cx="21.213203"
       cy="1128.1237"
       rx="17.172594"
       ry="20.203051" />
    <path
       style="fill:#000000;fill-rule:evenodd;stroke:#000000;stroke-width:1px;stroke-linecap:butt;stroke-linejoin:miter;stroke-opacity:1"
       d="m -718.21846,1337.2252 c -50.50763,78.7919 -111.11678,309.1067 -111.11678,300.0153 0,-9.0913 86.87312,-234.3554 91.92388,-244.4569 5.05076,-10.1015 -96.97464,222.2336 -89.90357,233.3453 7.07106,11.1116 89.90357,-232.3351 89.90357,-220.2133 0,12.1218 -76.77159,224.2539 -69.70052,227.2843 7.07106,3.0305 81.82235,-238.396 81.82235,-238.396 z"
       id="path4156"
       inkscape:connector-curvature="0" />
    <path
       style="fill:#000000;fill-rule:evenodd;stroke:#000000;stroke-width:1px;stroke-linecap:butt;stroke-linejoin:miter;stroke-opacity:1"
       d="m -113.13709,1097.8191 c -35.35533,17.1726 -64.64976,38.3858 -64.64976,38.3858 l 39.39595,-7.0711 c 0,0 -38.3858,20.203 -47.47717,30.3046 -9.09137,10.1015 45.45687,-14.1422 41.41626,-7.0711 -4.04061,7.0711 -40.40611,31.3147 -49.49748,44.4467 -9.09137,13.132 46.46702,-19.1929 46.46702,-19.1929 0,0 -65.65992,47.4772 -68.69037,55.5584 -3.03046,8.0812 62.62945,-33.335 59.599,-22.2233 -3.03046,11.1116 -74.75129,45.4568 -83.84267,58.5888 -9.09137,13.132 59.599,-15.1523 59.599,-15.1523 0,0 -76.77159,33.335 -77.78174,45.4569 -1.01015,12.1218 6.06091,13.132 6.06091,13.132 l 105.05587,-67.6803 z"
       id="path4158"
       inkscape:connector-curvature="0" />
    <path
       style="fill:none;fill-rule:evenodd;stroke:#000000;stroke-width:4.80000019;stroke-linecap:butt;stroke-linejoin:miter;stroke-miterlimit:4;stroke-dasharray:none;stroke-opacity:1"
       d="m 8.0812155,1261.4637 c -28.2842675,-25.2538 -11.111673,-40.4061 -11.111673,-40.4061"
       id="path4160"
       inkscape:connector-curvature="0"
       sodipodi:nodetypes="cc" />
    <ellipse
       ry="10.101525"
       rx="9.5964489"
       cy="1289.2701"
       cx="115.27379"
       id="ellipse4162"
       style="opacity:0.98000004;fill:#000000;fill-opacity:1;stroke:none;stroke-width:25.79999924;stroke-linecap:round;stroke-linejoin:bevel;stroke-miterlimit:4;stroke-dasharray:none" />
  </g>
</svg>
