<?xml version="1.0" encoding="UTF-8" standalone="no"?>
<!-- Created with Inkscape (http://www.inkscape.org/) -->

<svg
   xmlns:dc="http://purl.org/dc/elements/1.1/"
   xmlns:cc="http://creativecommons.org/ns#"
   xmlns:rdf="http://www.w3.org/1999/02/22-rdf-syntax-ns#"
   xmlns:svg="http://www.w3.org/2000/svg"
   xmlns="http://www.w3.org/2000/svg"
   xmlns:sodipodi="http://sodipodi.sourceforge.net/DTD/sodipodi-0.dtd"
   xmlns:inkscape="http://www.inkscape.org/namespaces/inkscape"
   width="431.07404mm"
   height="440.28323mm"
   viewBox="0 0 1527.4277 1560.0587"
   id="svg4183"
   version="1.1"
   inkscape:version="0.91 r13725"
   sodipodi:docname="katarina-konjicek.svg">
  <defs
     id="defs4185" />
  <sodipodi:namedview
     id="base"
     pagecolor="#ffffff"
     bordercolor="#666666"
     borderopacity="1.0"
     inkscape:pageopacity="0.0"
     inkscape:pageshadow="2"
     inkscape:zoom="0.38890873"
     inkscape:cx="527.24533"
     inkscape:cy="747.23624"
     inkscape:document-units="px"
     inkscape:current-layer="layer1"
     showgrid="false"
     showguides="true"
     inkscape:guide-bbox="true"
     fit-margin-top="0"
     fit-margin-left="0"
     fit-margin-right="0"
     fit-margin-bottom="0"
     inkscape:window-width="1642"
     inkscape:window-height="1021"
     inkscape:window-x="0"
     inkscape:window-y="0"
     inkscape:window-maximized="1">
    <sodipodi:guide
       position="-1951.1679,1456.6168"
       orientation="1,0"
       id="guide4785" />
  </sodipodi:namedview>
  <metadata
     id="metadata4188">
    <rdf:RDF>
      <cc:Work
         rdf:about="">
        <dc:format>image/svg+xml</dc:format>
        <dc:type
           rdf:resource="http://purl.org/dc/dcmitype/StillImage" />
        <dc:title></dc:title>
      </cc:Work>
    </rdf:RDF>
  </metadata>
  <g
     inkscape:label="Layer 1"
     inkscape:groupmode="layer"
     id="layer1"
     transform="translate(-639.20774,-33.494152)">
    <path
       style="fill:#aa4400;fill-rule:evenodd;stroke:#000000;stroke-width:1px;stroke-linecap:butt;stroke-linejoin:miter;stroke-opacity:1"
       d="m 1704.1311,774.49233 c -1.0842,0.54208 -2.5523,-0.54207 -3.6364,0 -1.5332,0.76662 -2.1031,2.86975 -3.6364,3.63637 -1.0841,0.54207 -2.5522,-0.54208 -3.6363,0 -1.5333,0.76661 -2.1032,2.86975 -3.6364,3.63636 -1.0842,0.54208 -2.5522,-0.54208 -3.6364,0 -1.5332,0.76661 -2.1031,2.86975 -3.6363,3.63636 -1.0842,0.54208 -2.7793,-0.8571 -3.6364,0 -0.8571,0.8571 0.8571,2.77927 0,3.63637 -0.8571,0.8571 -2.7793,-0.8571 -3.6364,0 -0.8571,0.8571 0.8571,2.77926 0,3.63636 -1.7142,1.7142 -5.5585,-1.7142 -7.2727,0 -0.8571,0.8571 0.8571,2.77926 0,3.63636 -1.8182,1.81819 -9.0909,-1.81818 -10.9091,0 -0.8571,0.8571 0.8571,2.77927 0,3.63637 -1.7142,1.7142 -5.5585,-1.7142 -7.2727,0 -0.8571,0.8571 0.8571,2.77926 0,3.63636 -1.7142,1.7142 -5.5585,-1.7142 -7.2727,0 -0.8571,0.8571 0.8571,2.77927 0,3.63636 -1.7142,1.7142 -5.5586,-1.71419 -7.2728,0 -0.8571,0.8571 0.8571,2.77927 0,3.63637 -0.8571,0.8571 -2.7792,-0.8571 -3.6363,0 -0.8571,0.8571 0.8571,2.77926 0,3.63636 -0.8571,0.8571 -3.6364,1.21212 -3.6364,0 0,-1.21212 4.8485,0 3.6364,0 -2.4243,0 -5.1044,-1.08415 -7.2727,0 -1.0842,0.54208 1.2121,3.63637 0,3.63637 -1.2122,0 1.2121,-3.63637 0,-3.63637 -1.7142,0 -2.1032,2.86975 -3.6364,3.63637 -3.8642,1.93207 -3.4086,-1.93208 -7.2727,0 -3.0665,1.53322 -4.2063,5.7395 -7.2728,7.27272 -1.0841,0.54208 -2.5522,-0.54207 -3.6363,0 -1.5333,0.76662 -2.1032,2.86975 -3.6364,3.63637 -1.0841,0.54207 -2.5522,-0.54208 -3.6364,0 -1.5332,0.76661 -2.1031,2.86975 -3.6363,3.63636 -1.0842,0.54208 -2.7793,-0.8571 -3.6364,0 -0.8571,0.8571 0.8571,2.77926 0,3.63636 -1.8182,1.81819 -9.0909,-1.81818 -10.9091,0 -0.8571,0.8571 0.8571,2.77927 0,3.63637 -0.8571,0.8571 -2.5522,-0.54208 -3.6363,0 -3.0665,1.53322 -4.2063,5.7395 -7.2728,7.27272 -1.0841,0.54208 -2.7792,-0.85709 -3.6363,0 -0.8571,0.8571 0.8571,2.77927 0,3.63637 -0.7434,0.7434 -9.4673,-0.7209 -10.9091,0 -1.5332,0.76661 -2.1032,2.86975 -3.6364,3.63636 -2.1683,1.08416 -5.5585,-1.7142 -7.2727,0 -0.8571,0.8571 0.8571,2.77927 0,3.63637 -0.8571,0.85709 -2.4243,0 -3.6364,0 l -18.1818,0 c -1.2121,0 -2.7793,-0.8571 -3.6364,0 -0.8571,0.85709 1.0842,3.09428 0,3.63636 -7.2727,3.63636 -5.4545,-1.81818 -10.909,0 -2.5713,0.8571 -4.6433,2.979 -7.2728,3.63636 -2.3518,0.58797 -4.8485,0 -7.2727,0 -1.2121,0 -2.5522,-0.54207 -3.6364,0 -3.0664,1.53323 -4.2062,5.7395 -7.2727,7.27273 -2.9091,1.45455 -8,-1.45455 -10.9091,0 -1.5332,0.76661 -2.1031,2.86975 -3.6363,3.63636 -2.1684,1.08416 -4.9729,-0.76661 -7.2728,0 -2.5713,0.8571 -4.7014,2.77927 -7.2727,3.63637 -3.1438,1.04794 -15.8679,-1.15695 -18.1818,0 -1.5332,0.76661 -2.1032,2.86975 -3.6364,3.63636 -2.2081,1.10404 -19.6101,-1.10404 -21.8182,0 -1.5332,0.76661 -2.0101,3.09429 -3.6363,3.63636 -2.2999,0.76662 -4.9209,-0.58796 -7.2728,0 -2.6294,0.65737 -4.7014,2.77927 -7.2727,3.63637 -3.2727,1.09091 -7.6363,-1.09091 -10.9091,0 -1.6262,0.54208 -2.0101,3.09429 -3.6363,3.63636 -2.2999,0.76661 -5.1045,-1.08415 -7.2728,0 -1.0841,0.54208 0.5421,2.55221 0,3.63637 -0.7666,1.53322 -2.1031,2.8698 -3.6363,3.6364 -2.9091,1.4545 -8,-1.4546 -10.9091,0 -1.5332,0.7666 -2.1032,2.8697 -3.6364,3.6363 -2.1683,1.0842 -4.9417,-0.666 -7.2727,0 -7.3712,2.1061 -14.5455,4.8485 -21.8182,7.2728 -3.6364,1.2121 -7.1673,2.8048 -10.9091,3.6363 -7.1975,1.5995 -14.6207,2.0369 -21.8182,3.6364 -3.7418,0.8315 -7.2727,2.4242 -10.9091,3.6363 -7.2727,2.4243 -14.4753,5.0699 -21.8181,7.2728 -27.0186,8.10547 -2.0795,-1.9475 -36.3637,10.90907 -6.0872,2.2827 -24.5248,14.0142 -25.4545,14.5454 -4.7066,2.6895 -9.8972,4.4838 -14.5455,7.2727 -3.7475,2.2486 -7.1615,5.0242 -10.9091,7.2728 -2.3241,1.3945 -5.0175,2.1329 -7.2727,3.6363 -7.2038,-0.363 -1.7198,5.3562 -3.6364,7.2728 -0.8571,0.8571 -2.7792,-0.8571 -3.6363,0 -0.8571,0.8571 0.8571,2.7792 0,3.6363 -0.8571,0.8571 -2.7793,-0.8571 -3.6364,0 -0.8571,0.8571 0.5421,2.5522 0,3.6364 -8.2769,8.2769 -0.9611,-0.7531 -3.6363,7.2727 -8.7799,26.33973 1.0483,-5.7331 -7.2728,10.90913 -0.5421,1.0842 0.5421,2.5522 0,3.6364 -8.3211,16.6422 1.5072,-15.43063 -7.2727,10.9091 -0.3833,1.1499 0.5421,2.5522 0,3.6363 -1.5332,3.0665 -5.7395,4.2063 -7.2727,7.2728 -0.5421,1.0841 0.542,2.5522 0,3.6363 -0.7666,1.5332 -2.6855,2.2101 -3.6364,3.6364 -1.5034,2.2552 -2.1329,5.0175 -3.6364,7.2727 -0.9508,1.4263 -2.6855,2.2101 -3.6363,3.6364 -1.5035,2.2551 -2.1329,5.0175 -3.6364,7.2727 -0.9508,1.4263 -2.6855,2.2101 -3.6363,3.6364 -1.5035,2.2551 -2.7793,4.7014 -3.6364,7.2727 -0.3833,1.1499 0.8571,2.7793 0,3.6364 -0.8571,0.857 -3.0943,-1.0842 -3.6364,0 -1.0841,2.1683 1.0842,5.1044 0,7.2727 -0.5421,1.0841 -2.7792,-0.8571 -3.6363,0 -1.7142,1.7142 1.7142,5.5585 0,7.2727 -0.8571,0.8571 -2.7793,-0.8571 -3.6364,0 -1.7142,1.7142 1.7142,5.5585 0,7.2727 -0.8571,0.8571 -2.7793,-0.8571 -3.6364,0 -1.7142,1.7142 1.7142,5.5586 0,7.2728 -0.8571,0.8571 -2.7792,-0.8571 -3.6363,0 -0.7434,0.7434 0.7209,9.4673 0,10.9091 -0.7666,1.5332 -2.8698,2.1031 -3.6364,3.6363 -0.9863,1.9727 0.995,13.5505 0,14.5455 -0.8571,0.8571 -2.7793,-0.8571 -3.6364,0 -0.5643,0.5643 0.4717,9.4941 0,10.9091 -0.8571,2.5713 -2.7792,4.7014 -3.6363,7.2727 -0.3833,1.1499 0,2.4242 0,3.6364 l 0,7.2727 c 0,2.4242 0.5879,4.9208 0,7.2727 -0.6574,2.6295 -2.979,4.6433 -3.6364,7.2727 -0.802,3.2081 1.0384,11.4304 0,14.5455 -0.8571,2.5713 -2.7792,4.7014 -3.6363,7.2727 -0.8338,2.5012 1.0727,8.7636 0,10.9091 -0.7667,1.5332 -2.8698,2.1031 -3.6364,3.6364 -1.0842,2.1683 1.0841,5.1044 0,7.2727 -0.7666,1.5332 -2.8698,2.1031 -3.6364,3.6364 -1.0841,2.1683 0.7666,4.9728 0,7.2727 -0.8571,2.5713 -2.7792,4.7014 -3.6363,7.2727 -0.7667,2.2999 0.7666,4.9729 0,7.2727 -0.8571,2.5713 -2.7793,4.7015 -3.6364,7.2728 -1.288,3.864 1.288,10.6814 0,14.5454 -8.7799,26.3397 1.0484,-5.7331 -7.2727,10.9091 -0.5421,1.0842 0.294,2.4604 0,3.6364 -0.9297,3.7186 -2.7067,7.1904 -3.6364,10.9091 -0.588,2.3518 0,4.8485 0,7.2727 l 0,14.5454 c 0,2.4243 1.0842,5.1045 0,7.2728 -0.5421,1.0841 -3.253,-1.1499 -3.6364,0 -1.5151,4.5454 1.0101,13.1313 0,18.1818 -0.7517,3.7586 -2.7067,7.1905 -3.6363,10.9091 -0.8217,3.2869 0,17.5444 0,21.8182 0,1.2121 0.5421,2.5522 0,3.6363 -0.7666,1.5333 -2.8698,2.1032 -3.6364,3.6364 -0.5533,1.1067 0,9.2714 0,10.9091 l 0,25.4545 0,7.2728 c 0,1.2121 0.3833,2.4864 0,3.6363 -0.8571,2.5713 -2.7792,4.7015 -3.6363,7.2727 -0.3834,1.15 0,2.4243 0,3.6364 l 0,10.9091 0,21.8182 0,58.1818 0,43.6364 c 0,0.8819 -0.117,10.7921 0,10.9091 0.8571,0.8571 2.4242,0 3.6363,0 l 21.8182,0 c 1.6377,0 9.8024,-0.5534 10.9091,0 1.5332,0.7666 2.0101,3.0942 3.6364,3.6363 2.2998,0.7666 5.1044,-1.0841 7.2727,0 1.0841,0.5421 -0.8571,2.7793 0,3.6364 1.126,1.126 17.0558,-1.126 18.1818,0 0.8571,0.8571 -0.8571,2.7793 0,3.6363 0.8571,0.8571 2.4242,0 3.6364,0 l 3.6363,0 54.5455,0 c 1.6421,0 31.0828,0.8223 32.7273,0 1.5332,-0.7666 2.1031,-2.8697 3.6363,-3.6363 1.0842,-0.5421 2.5522,0.5421 3.6364,0 1.5332,-0.7666 2.1031,-2.8698 3.6363,-3.6364 1.0842,-0.5421 2.7793,0.8571 3.6364,0 0.8571,-0.8571 0,-2.4242 0,-3.6363 0,-1.2122 0.3833,-2.4865 0,-3.6364 -0.8571,-2.5713 -2.979,-4.6433 -3.6364,-7.2727 -0.5879,-2.3519 0,-4.8485 0,-7.2728 l 0,-18.1818 0,-3.6363 c 0,-1.2122 0.5421,-2.5523 0,-3.6364 -0.7666,-1.5332 -2.8697,-2.1031 -3.6363,-3.6364 -0.5534,-1.1066 0,-9.2714 0,-10.9091 0,-2.9274 -0.7608,-12.263 0,-14.5454 0.8571,-2.5713 2.7792,-4.7014 3.6363,-7.2727 1.15,-3.4498 -1.1499,-7.4594 0,-10.9091 0.5421,-1.6263 2.6855,-2.2101 3.6364,-3.6364 1.5035,-2.2552 2.7793,-4.7014 3.6364,-7.2727 1.0383,-3.1151 -0.802,-11.3374 0,-14.5455 0.6573,-2.6294 2.979,-4.6432 3.6363,-7.2727 0.588,-2.3519 0,-4.8485 0,-7.2727 0,-1.2122 -0.542,-2.5522 0,-3.6364 0.7666,-1.5332 3.0943,-2.0101 3.6364,-3.6364 0.7666,-2.2998 0,-4.8484 0,-7.2727 l 0,-21.8182 c 0,-2.4242 -0.588,-4.9208 0,-7.2727 0.9297,-3.7186 2.8846,-7.1505 3.6364,-10.9091 0.4754,-2.3772 -0.588,-4.9209 0,-7.2727 0.6573,-2.6295 2.7792,-4.7014 3.6363,-7.2727 0.9757,-2.9269 -1.1618,-12.2218 0,-14.5455 0.7666,-1.5332 3.0943,-2.0101 3.6364,-3.6364 1.5332,-4.5996 -1.1759,-9.8417 0,-14.5454 0.6574,-2.6295 2.7793,-4.7014 3.6364,-7.2727 0.3833,-1.15 -0.5421,-2.5523 0,-3.6364 0.7666,-1.5332 2.8697,-2.1031 3.6363,-3.6364 1.1262,-2.2524 -1.0759,-13.4695 0,-14.5454 0.8571,-0.8571 2.7793,0.8571 3.6364,0 1.126,-1.126 -1.126,-17.0559 0,-18.1818 0.8571,-0.8571 3.0943,1.0841 3.6363,0 1.6263,-3.2525 0,-7.2728 0,-10.9091 0,-1.2122 -1.2121,-3.6364 0,-3.6364 1.7142,0 2.4243,2.4242 3.6364,3.6364 8.5279,8.5279 -0.8571,-2.5713 3.6364,10.9091 0.542,1.6262 3.0943,2.0101 3.6363,3.6363 0,16.5538 -1.7142,0.208 3.6364,10.9091 0.5794,1.1588 0,14.9319 0,18.1818 0,1.2122 -0.8571,2.7793 0,3.6364 0.8571,0.8571 2.7793,-0.8571 3.6364,0 1.2764,1.2764 -1.2559,15.6701 0,18.1818 0.7666,1.5332 2.8697,2.1032 3.6363,3.6364 0.5528,1.1056 0,12.0344 0,14.5454 0,1.9016 -0.478,13.5893 0,14.5455 0.7666,1.5332 2.8698,2.1031 3.6364,3.6363 1.1533,2.3067 -1.1811,15.8196 0,18.1819 0.7666,1.5332 2.8697,2.1031 3.6364,3.6363 0.542,1.0842 0,2.4243 0,3.6364 l 0,7.2727 0,21.8182 c 0,1.6377 -0.5534,9.8024 0,10.9091 0.7666,1.5332 2.8697,2.1031 3.6363,3.6364 1.1471,2.294 -1.147,15.8877 0,18.1818 0.7666,1.5332 2.8698,2.1031 3.6364,3.6363 1.4545,2.9091 -1.4546,8 0,10.9091 0.7666,1.5333 2.8697,2.1032 3.6363,3.6364 1.1428,2.2855 -1.1427,12.2599 0,14.5454 0.7667,1.5333 2.8698,2.1032 3.6364,3.6364 0.5421,1.0842 -0.8571,2.7793 0,3.6364 0.8571,0.8571 2.7793,-0.8571 3.6364,0 0.8571,0.8571 -0.8571,2.7792 0,3.6363 7.5237,7.5238 -0.2941,-11.4973 7.2727,3.6364 0.5421,1.0842 0,2.4242 0,3.6364 1.2121,1.2121 2.8697,2.1031 3.6364,3.6363 1.0841,2.1683 -1.7142,5.5586 0,7.2728 0.8571,0.8571 2.4242,0 3.6363,0 l 25.4546,0 c 3.6363,0 7.6566,1.6262 10.9091,0 1.0841,-0.5421 -0.8571,-2.7793 0,-3.6364 0.995,-0.995 12.5727,0.9863 14.5454,0 1.5332,-0.7666 2.1032,-2.8698 3.6364,-3.6364 1.0841,-0.542 2.4242,0 3.6363,0 2.4243,0 4.9729,0.7666 7.2728,0 1.6262,-0.542 2.1031,-2.8697 3.6363,-3.6363 1.0842,-0.5421 2.5522,0.542 3.6364,0 1.5332,-0.7666 2.1031,-2.8698 3.6364,-3.6364 2.3622,-1.1811 15.8752,1.1533 18.1818,0 1.5332,-0.7666 2.1031,-2.8697 3.6363,-3.6364 2.1684,-1.0841 5.1045,1.0842 7.2728,0 1.5332,-0.7666 2.1031,-2.8697 3.6363,-3.6363 1.4418,-0.7209 10.1657,0.7434 10.9091,0 0.8571,-0.8571 -0.8571,-2.7793 0,-3.6364 0.8571,-0.8571 2.4243,0 3.6364,0 2.5775,0 20.878,0.4701 21.8182,0 6.4018,-3.2009 2.1496,-4.9622 3.6363,-10.9091 0.6574,-2.6294 3.1048,-4.615 3.6364,-7.2727 0.7131,-3.5658 0,-7.2727 0,-10.9091 0,-1.2121 -0.3833,-2.4864 0,-3.6364 4.1784,-12.5353 3.6364,-2.6936 3.6364,-10.9091 l 0,-3.6363 c 0,-1.2121 -1.2122,-3.6364 0,-3.6364 1.2121,0 0,4.8485 0,3.6364 l 0,-25.4546 0,-7.2727 c 0,-1.2121 -0.3833,-2.4864 0,-3.6364 0.8571,-2.5712 2.979,-4.6432 3.6363,-7.2727 0.4429,-1.7716 -0.9614,-12.6226 0,-14.5454 0.7666,-1.5333 2.8698,-2.1032 3.6364,-3.6364 0.5421,-1.0841 0,-2.4242 0,-3.6364 l 0,-3.6363 0,-21.8182 c 0,-2.3895 -0.6839,-8.8575 0,-10.9091 0.8571,-2.5713 2.7793,-4.7014 3.6364,-7.2727 0.8536,-2.5611 -0.9759,-13.5696 0,-14.5455 0.8571,-0.8571 3.0942,1.0842 3.6363,0 3.2525,-2.8685 -1.6262,-7.6566 0,-10.9091 0.7666,-1.5332 2.8698,-2.1031 3.6364,-3.6363 1.1811,-2.3623 -1.1533,-15.8752 0,-18.1819 0.7666,-1.5332 2.8697,-2.1031 3.6363,-3.6363 1.0842,-2.1683 -1.7142,-5.5585 0,-7.2727 0.8571,-0.8571 2.7793,0.8571 3.6364,0 0.8571,-0.8571 -0.5421,-2.5523 0,-3.6364 0.7666,-1.5332 3.0943,-2.0101 3.6364,-3.6364 0.7666,-2.2998 -1.0842,-5.1044 0,-7.2727 0.542,-1.0841 2.5522,0.5421 3.6363,0 1.5333,-0.7666 2.8698,-2.1031 3.6364,-3.6364 1.0842,-2.1683 -1.0842,-5.1044 0,-7.2727 0.7666,-1.5332 2.8697,-2.1031 3.6364,-3.6364 0.542,-1.0841 -0.5421,-2.5522 0,-3.6363 0.7666,-1.5332 2.8697,-2.1032 3.6363,-3.6364 0.5421,-1.0841 -0.5421,-2.5522 0,-3.6363 0.7666,-1.5333 2.4243,-2.4243 3.6364,-3.6364 1.2121,0 3.0943,1.0841 3.6364,0 1.0841,-2.1683 -1.0842,-5.1044 0,-7.2727 0.542,-1.0842 2.5522,0.542 3.6363,0 1.5332,-0.7666 2.8698,-2.1032 3.6364,-3.6364 0.5421,-1.0841 -0.5421,-2.5522 0,-3.6364 0.7666,-1.5332 2.6855,-2.21 3.6363,-3.6363 1.5035,-2.2552 2.4243,-4.8485 3.6364,-7.2728 1.2121,-2.4242 2.4242,-4.8484 3.6364,-7.2727 1.2121,-2.4242 1.7198,-5.3562 3.6363,-7.2727 0.8571,-0.8571 2.4243,0 3.6364,0 2.4242,-3.6364 5.3182,-7.0001 7.2727,-10.9091 0.5421,-1.0841 -0.5421,-2.5522 0,-3.6364 0.7666,-1.5332 2.4243,-2.4242 3.6364,-3.6363 2.4242,-2.4243 5.371,-4.4202 7.2727,-7.2727 0.6724,-1.0086 -0.8571,-2.7793 0,-3.6364 0.8571,-0.8571 2.5522,0.5421 3.6364,0 1.5332,-0.7666 2.1031,-2.8698 3.6363,-3.6364 0.9562,-0.4781 12.644,0 14.5455,0 1.2121,0 2.7793,-0.8571 3.6364,0 0.8571,0.8571 -0.8571,2.7793 0,3.6364 1.7142,1.7142 5.5585,-1.7142 7.2727,0 0.8571,0.8571 -0.8571,2.7793 0,3.6364 1.7142,1.7141 5.5585,-1.7142 7.2727,0 0.8571,0.857 -0.8571,2.7792 0,3.6363 0.8571,0.8571 2.5522,-0.5421 3.6364,0 1.5332,0.7666 2.1031,2.8698 3.6363,3.6364 2.2941,1.147 15.8878,-1.1471 18.1819,0 1.5332,0.7666 2.1031,2.8697 3.6363,3.6363 2.2856,1.1428 12.2599,-1.1427 14.5455,0 1.5332,0.7667 2.1031,2.8698 3.6363,3.6364 2.1684,1.0842 5.5586,-1.7142 7.2728,0 0.8571,0.8571 0,2.4242 0,3.6364 l 0,29.0909 0,25.4545 c 0,1.2121 -0.8571,2.7793 0,3.6364 0.8571,0.8571 2.7792,-0.8571 3.6363,0 0.8571,0.8571 0,2.4242 0,3.6363 0,3.9706 -0.7839,15.8302 0,18.1819 0.8571,2.5713 2.7793,4.7014 3.6364,7.2727 0.7666,2.2998 -0.588,4.9209 0,7.2727 0.9297,3.7186 2.8846,7.1505 3.6364,10.9091 0.4754,2.3772 0,4.8485 0,7.2727 0,1.2122 -0.5421,2.5523 0,3.6364 0.7666,1.5332 2.8697,2.1031 3.6363,3.6364 1.1471,2.294 -1.147,15.8877 0,18.1818 0.7666,1.5332 2.8698,2.1031 3.6364,3.6363 1.0652,2.1305 -0.6699,15.5022 0,18.1819 0.6574,2.6294 2.979,4.6432 3.6364,7.2727 0.5879,2.3519 0,4.8485 0,7.2727 0,1.2121 -0.5421,2.5522 0,3.6364 0.7666,1.5332 2.8697,2.1031 3.6363,3.6363 1.0006,2.0011 -0.9476,18.9753 0,21.8182 0.5421,1.6263 3.0943,2.0102 3.6364,3.6364 1.1499,3.4498 0,7.2727 0,10.9091 l 0,25.4545 c 0,0.8641 -0.4075,13.7305 0,14.5455 0.7666,1.5332 2.8697,2.1031 3.6363,3.6363 0.5421,1.0842 -1.0841,3.0943 0,3.6364 2.1684,1.0842 4.8485,0 7.2728,0 1.2121,0 2.5522,0.5421 3.6363,0 1.5333,-0.7666 2.1032,-2.8697 3.6364,-3.6364 3.4284,-1.7141 7.4807,-1.9221 10.9091,-3.6363 1.5332,-0.7666 2.0101,-3.0943 3.6364,-3.6364 2.2998,-0.7666 4.8955,0.4755 7.2727,0 3.7586,-0.7517 7.1282,-3.0062 10.9091,-3.6363 3.5869,-0.5979 7.2727,0 10.9091,0 3.6363,-1.2122 7.1904,-2.7068 10.9091,-3.6364 1.1759,-0.294 2.4242,0 3.6363,0 l 25.4546,0 c 1.2121,0 2.7792,-0.8571 3.6363,0 0.8571,0.8571 -0.8571,2.7793 0,3.6364 1.7142,1.7142 5.5586,-1.7142 7.2728,0 0.8571,0.8571 -0.8571,2.7792 0,3.6363 0.8571,0.8571 2.4242,0 3.6363,0 1.2121,0 2.7793,0.8571 3.6364,0 0.8571,-0.8571 -0.8571,-2.7792 0,-3.6363 0.8571,-0.8571 2.7792,0.8571 3.6363,0 0.1464,-0.1464 0,-13.2101 0,-14.5455 0,-1.2121 0.8571,-2.7793 0,-3.6364 -0.8571,-0.8571 -2.7792,0.8571 -3.6363,0 -0.7434,-0.7434 0.7209,-9.4673 0,-10.9091 -0.7666,-1.5332 -2.8698,-2.1031 -3.6364,-3.6363 -1.0841,-2.1683 1.7142,-5.5585 0,-7.2727 -0.8571,-0.8571 -2.7792,0.8571 -3.6363,0 -1.7142,-1.7142 0.7666,-4.9729 0,-7.2728 -0.8571,-2.5713 -2.7793,-4.7014 -3.6364,-7.2727 -0.3833,-1.1499 0,-2.4242 0,-3.6364 l 0,-7.2727 0,-18.1818 c 0,-2.4242 0.7666,-4.9729 0,-7.2727 -0.5421,-1.6263 -3.0943,-2.0102 -3.6364,-3.6364 -1.3889,-4.1667 1.6416,-18.535 0,-21.8182 -0.5421,-1.0841 -3.253,1.1499 -3.6363,0 -4.5997,-4.102 1.5332,-9.9458 0,-14.5454 -0.8571,-2.5713 -2.7793,-4.7015 -3.6364,-7.2728 -1.0479,-3.1438 1.1569,-15.8679 0,-18.1818 -4.4935,-8.9869 -3.6364,1.2552 -3.6364,-7.2727 0,-1.6377 0.5534,-9.8024 0,-10.9091 -0.7666,-1.5332 -2.8697,-2.1031 -3.6363,-3.6364 -0.5421,-1.0841 0,-2.4242 0,-3.6363 0,-2.4243 0.5879,-4.9209 0,-7.2728 -0.6574,-2.6294 -2.7793,-4.7014 -3.6364,-7.2727 -1.0757,-3.227 1.1906,-15.8006 0,-18.1818 -0.7666,-1.5332 -2.8697,-2.1031 -3.6364,-3.6364 -0.542,-1.0841 0,-2.4242 0,-3.6363 l 0,-3.6364 0,-14.5454 c 0,-1.2122 -1.2121,-3.6364 0,-3.6364 1.2122,0 -0.542,2.5522 0,3.6364 4.4935,8.9869 3.6364,-1.2552 3.6364,7.2727 0,6.9392 -0.8571,0.5325 3.6364,7.2727 1.5034,2.2552 2.4242,4.8485 3.6363,7.2727 1.2122,2.4243 2.7793,4.7015 3.6364,7.2728 3.6083,10.8248 -8.6104,-7.4611 3.6364,10.9091 0.9508,1.4263 2.8697,2.1031 3.6363,3.6363 1.7142,3.4284 1.5102,7.7198 3.6364,10.9091 0.6724,1.0086 2.7793,-0.8571 3.6364,0 14.1917,14.1918 -0.8418,1.9529 3.6363,10.9091 0.7666,1.5332 2.8698,2.1031 3.6364,3.6364 0.5421,1.0841 -0.5421,2.5522 0,3.6363 0.7666,1.5333 2.8697,2.1032 3.6363,3.6364 0.5421,1.0841 -0.542,2.5522 0,3.6364 0.7667,1.5332 2.8698,2.1031 3.6364,3.6363 0.5421,1.0842 -0.3833,2.4865 0,3.6364 0.8571,2.5713 2.7793,4.7014 3.6364,7.2727 0.3833,1.1499 0,2.4243 0,3.6364 1.2121,3.6363 1.9221,7.4807 3.6363,10.9091 0.7666,1.5332 2.8698,2.1031 3.6364,3.6363 0.5421,1.0842 -0.5421,2.5522 0,3.6364 1.9545,3.909 5.3182,7.0001 7.2727,10.9091 0.5421,1.0841 0,2.4242 0,3.6363 0,2.4243 -0.7666,4.9729 0,7.2728 0.5421,1.6262 2.8698,2.1031 3.6364,3.6363 0.5421,1.0842 0,2.4243 0,3.6364 1.2121,2.4242 2.0101,5.1044 3.6364,7.2727 2.057,2.7427 5.3709,4.4202 7.2727,7.2728 0.6723,1.0085 -0.5421,2.5522 0,3.6363 1.9545,3.909 5.0242,7.1616 7.2727,10.9091 1.3945,2.3241 2.1329,5.0176 3.6364,7.2727 10.2278,15.3417 -6.2407,-19.754 10.9091,14.5455 0.542,1.0841 -0.3833,2.4864 0,3.6364 0.8571,2.5713 2.7792,4.7014 3.6363,7.2727 0.7666,2.2998 -1.7142,5.5585 0,7.2727 1.7142,1.7142 5.5586,-1.7142 7.2728,0 7.5237,7.5238 -11.4974,-0.2941 3.6363,7.2727 2.9091,1.4546 8,-1.4545 10.9091,0 1.5332,0.7667 2.0101,3.0943 3.6364,3.6364 1.6646,0.5549 16.1521,0 18.1818,0 1.2121,0 2.4864,-0.3833 3.6364,0 2.5712,0.8571 4.6432,2.979 7.2727,3.6364 2.3518,0.5879 4.9729,-0.7666 7.2727,0 1.6262,0.542 2.0101,3.0943 3.6364,3.6363 1.6632,0.5544 12.9273,-0.809 14.5454,0 1.5333,0.7666 2.1032,2.8698 3.6364,3.6364 0.1902,0.095 10.7188,0.095 10.9091,0 3.7936,-1.8968 5.7507,-8.7948 7.2727,-7.2727 1.2121,1.2121 -5.3506,3.6363 -3.6364,3.6363 12.9295,0 4.4746,-8.1109 7.2728,-10.9091 0.8571,-0.8571 2.5522,0.5421 3.6363,0 1.5333,-0.7666 2.4243,-2.4242 3.6364,-3.6363 1.2121,-1.2121 2.8697,-2.1032 3.6364,-3.6364 0.542,-1.0841 -0.8571,-2.7793 0,-3.6364 0.8571,-0.857 2.7792,0.8571 3.6363,0 0.8571,-0.857 -0.8571,-2.7792 0,-3.6363 0.8571,-0.8571 2.7793,0.8571 3.6364,0 0.3097,-0.3097 0.6016,-9.1042 0,-10.9091 -0.8571,-2.5713 -2.7793,-4.7014 -3.6364,-7.2727 -0.3833,-1.15 0.294,-2.4605 0,-3.6364 -0.9296,-3.7186 -2.7067,-7.1905 -3.6363,-10.9091 -0.294,-1.1759 0.3833,-2.4864 0,-3.6364 -1.2122,-2.4242 -2.4243,-4.8484 -3.6364,-7.2727 0,-1.2121 0.3833,-2.4864 0,-3.6363 -0.8571,-2.5713 -2.979,-4.6433 -3.6364,-7.2728 -1.1953,-4.7811 1.5054,-13.6656 0,-18.1818 -0.542,-1.6262 -2.8697,-2.1031 -3.6363,-3.6364 -0.5534,-1.1066 0,-9.2714 0,-10.909 l 0,-21.8182 0,-18.1818 0,-3.6364 c 0,-1.2121 0.542,-2.5522 0,-3.6364 -0.7666,-1.5332 -2.8698,-2.1031 -3.6364,-3.6363 -0.5533,-1.1067 0,-9.2715 0,-10.9091 l 0,-29.0909 0,-72.7273 0,-18.1818 0,-7.2727 c 0,-1.2122 0.3833,-2.4865 0,-3.6364 -0.8571,-2.5713 -2.979,-4.6433 -3.6364,-7.2727 -0.9417,-3.7669 0,-10.3758 0,-14.5455 l 0,-40 0,-36.3636 0,-10.9091 c 0,-1.2121 -0.3833,-2.4865 0,-3.6364 0.8571,-2.5713 2.7793,-4.7014 3.6364,-7.2727 0.3833,-1.1499 0,-2.4243 0,-3.6364 0,-3.045 -0.6913,-15.4165 0,-18.1818 0.6574,-2.6295 2.979,-4.6433 3.6364,-7.27273 1.426,-5.7041 -1.4261,-12.4777 0,-18.1818 0.6573,-2.6295 2.979,-4.6433 3.6363,-7.2728 1.4261,-5.7041 -1.426,-12.4777 0,-18.1818 0.4158,-1.663 3.2206,-1.9733 3.6364,-3.6363 0.6533,-2.6133 0,-17.8087 0,-21.81817 l 0,-3.6364 c 0,-1.2121 -0.5421,-2.5522 0,-3.6364 0.7666,-1.5332 3.0943,-2.0101 3.6364,-3.6363 0.7666,-2.2999 0,-4.8485 0,-7.2727 l 0,-7.2728 0,-32.72725 c 0,-4.84848 -0.9509,-9.79112 0,-14.54545 0.5315,-2.65776 2.7792,-4.70143 3.6363,-7.27273 0.3833,-1.14992 0,-2.42424 0,-3.63637 0,-4.84848 -0.7971,-9.76293 0,-14.54545 0.4456,-2.67351 3.2531,-4.58958 3.6364,-7.27273 0.8571,-5.99969 -0.8571,-12.18212 0,-18.18182 0.3833,-2.68314 3.1908,-4.59921 3.6364,-7.27272 0.9453,-5.67208 0,-21.82142 0,-29.09091 0,-1.21212 -0.3834,-2.48645 0,-3.63636 0.8571,-2.5713 2.979,-4.64327 3.6363,-7.27273 0.588,-2.35186 0,-4.84849 0,-7.27273 l 0,-21.81818 0,-65.45455 0,-127.27272 0,-36.36364 c 0,-3.3361 0.748,-18.82606 0,-21.81818 -0.9296,-3.71862 -2.7067,-7.19047 -3.6363,-10.90909 -0.7697,-3.07857 0,-10.76994 0,-14.54546 l 0,-32.72727 0,-14.54545 0,-7.27273 c 0,-1.21212 0.3833,-2.48645 0,-3.63637 -0.8571,-2.57129 -2.979,-4.64326 -3.6364,-7.27272 -0.8241,-3.29654 0,-13.95757 0,-18.18182 0,-8.52792 0.8571,1.7142 -3.6364,-7.27273 -0.5421,-1.08415 0,-2.42424 0,-3.63636 0,-3.66201 0.6703,-19.80721 0,-21.81818 -0.5421,-1.62623 -2.8697,-2.10314 -3.6363,-3.63637 -0.6576,-1.31503 0,-15.65258 0,-18.18182 0,-3.98342 -0.3672,-14.36187 0,-14.54545 2.1683,-1.08415 4.8484,0 7.2727,0 2.4242,0 4.9729,-0.76661 7.2727,0 1.6262,0.54208 2.1032,2.86975 3.6364,3.63636 1.315,0.65752 15.6526,0 18.1818,0 l 40,0 c 1.9015,0 13.5893,0.47808 14.5455,0 1.5332,-0.76661 2.1031,-2.86975 3.6363,-3.63636 2.2941,-1.14704 15.8878,1.14704 18.1818,0 1.5333,-0.76661 2.1032,-2.86975 3.6364,-3.63636 2.3811,-1.19058 14.9548,1.07567 18.1818,0 2.5713,-0.8571 4.7014,-2.77927 7.2727,-3.63637 2.2999,-0.76661 4.8485,0 7.2728,0 0.8819,0 10.7921,0.11695 10.9091,0 0.8571,-0.8571 -0.8571,-2.77926 0,-3.63636 1.126,-1.12599 17.0558,1.12599 18.1818,0 0.8571,-0.8571 -0.8571,-2.77927 0,-3.63636 0.8571,-0.8571 2.7792,0.85709 3.6363,0 0.995,-0.99499 -0.9863,-12.57278 0,-14.54546 0.7667,-1.53322 2.8698,-2.10314 3.6364,-3.63636 0.5421,-1.08416 -0.3833,-2.48645 0,-3.63637 4.1784,-12.53532 3.6364,-2.69368 3.6364,-10.90909 l 0,-10.90909 0,-3.63636 c 0,-1.21212 -0.5421,-2.55221 0,-3.63637 0.7666,-1.53322 2.8697,-2.10313 3.6363,-3.63636 0.2483,-0.49663 0.2483,-21.32155 0,-21.81818 -4.0201,-8.0402 -2.2568,-1.12844 -7.2727,-3.63636 -1.5332,-0.76662 -2.2101,-2.6855 -3.6364,-3.63637 -2.2551,-1.50345 -4.9485,-2.24188 -7.2727,-3.63636 -3.7475,-2.24854 -7.0001,-5.31824 -10.9091,-7.27273 -3.4284,-1.7142 -7.4807,-1.92216 -10.9091,-3.63636 -3.0664,-1.53323 -4.2062,-5.7395 -7.2727,-7.27273 -1.9727,-0.98634 -13.5505,0.99499 -14.5454,0 -0.8571,-0.8571 0.8571,-2.77926 0,-3.63636 -1.7142,-1.7142 -5.1045,1.08415 -7.2728,0 -1.5332,-0.76662 -2.1031,-2.86975 -3.6363,-3.63637 -2.1683,-1.08415 -4.9729,0.76662 -7.2728,0 -2.5713,-0.8571 -4.7014,-2.77926 -7.2727,-3.63636 -1.1499,-0.38331 -2.5522,0.54208 -3.6364,0 -3.9089,-1.95449 -7.0001,-5.31824 -10.909,-7.27273 -2.1684,-1.08415 -5.1045,1.08416 -7.2728,0 -1.5332,-0.76661 -2.1031,-2.86975 -3.6363,-3.63636 -2.1683,-1.08416 -4.9729,0.76661 -7.2728,0 -2.5713,-0.8571 -4.6432,-2.979 -7.2727,-3.63637 -3.7669,-0.94171 -10.3758,0 -14.5454,0 l -40,0 -10.9091,0 c -1.2122,0 -2.7793,-0.85709 -3.6364,0 -0.8571,0.8571 0.8571,2.77927 0,3.63637 -0.8571,0.8571 -2.4242,0 -3.6364,0 -1.9015,0 -13.5893,0.47807 -14.5454,0 l -142.2783,147.85228 z"
       id="path4857"
       inkscape:connector-curvature="0"
       sodipodi:nodetypes="cscccccsssssssssssssssssscssccccsccssssccssssssssscscscsscsssssscsccccsssssssssssssccssscssssccccccccscccsssssssscsscsssccsccccsccssssccssccsssccscsscscccsssscscsscscscsssssscscsccsscsscccscssssccccsccccssccsscccsssscssccccscscccccccsssssccssscsccscsccsccsssssccscsssscsccccscsccscccccsscscccccccccccccscccsccscssssssssccssccscssscssssssscsccccccsscccsssscsccssccccsssssssssssssscsscsscsscccsscsccscsscscsscsccscssssccccssscssscscsccccccccssscccsccccscccsscscccssccccccssccsccsccscccsscsccssssccccccssccscscssssscsccscccsscsccsscscsccscssssscscsssscssssccsscsccccccssscsssssccssssscssssccc" />
    <path
       style="fill:#e9c6af;fill-rule:evenodd;stroke:#000000;stroke-width:1px;stroke-linecap:butt;stroke-linejoin:miter;stroke-opacity:1"
       d="m 2052.7273,151.68039 c -6.4347,-0.077 6.7664,-13.05808 5.4545,-15.68182 -0.7666,-1.53323 -3.0943,-2.01013 -3.6363,-3.63636 -0.7667,-2.29984 0,-4.84849 0,-7.27273 l 0,-7.27273 c 0,-2.28032 0.4491,-14.09628 0,-14.54545 -0.8571,-0.8571 -2.5523,0.54207 -3.6364,0 -1.5332,-0.76662 -2.1031,-2.86975 -3.6364,-3.636367 -1.0841,-0.542077 -2.5522,0.542077 -3.6363,0 -1.5333,-0.766613 -2.1032,-2.869751 -3.6364,-3.636364 -2.1683,-1.084154 -5.1044,1.084155 -7.2727,0 -3.0665,-1.533225 -4.2063,-5.739501 -7.2728,-7.272727 -2.1683,-1.084154 -7.2727,2.424243 -7.2727,0 0,-5.151515 16.9697,10.30303 -3.6363,0 -1.0842,-0.542077 0.8571,-2.779264 0,-3.636364 -1.126,-1.125989 -17.0559,1.12599 -18.1819,0 -0.8571,-0.857099 0.8571,-2.779264 0,-3.636363 -0.8571,-0.857099 -3.6363,1.212121 -3.6363,0 0,-3.434344 16.9697,6.868687 -3.6364,0 -7.9219,1.359176 -1.2121,-6.060606 -3.6364,-7.272727 -2.3525,-1.176276 -13.2392,1.306236 -14.5454,0 -0.8571,-0.8571 0.8571,-2.779265 0,-3.636364 -1.7142,-1.714198 -5.5585,1.714198 -7.2727,0 -0.8571,-0.857099 0.8571,-2.779265 0,-3.636364 -0.8571,-0.857099 -2.4865,0.383307 -3.6364,0 -2.5713,-0.857099 -4.7014,-2.779264 -7.2727,-3.636363 -1.1499,-0.383307 -2.5522,0.542077 -3.6364,0 -1.5332,-0.766613 -2.1031,-2.869751 -3.6364,-3.636364 -1.0841,-0.542077 -2.5522,0.542077 -3.6363,0 -1.5332,-0.766613 -2.1032,-2.869751 -3.6364,-3.636364 -2.1683,-1.084154 -5.5585,1.714199 -7.2727,0 -0.8571,-0.857099 0.8571,-2.779264 0,-3.636363 -0.8571,-0.857099 -2.5522,0.542077 -3.6364,0 -1.5332,-0.766613 -2.1031,-2.869751 -3.6363,-3.636364 -1.9727,-0.986341 -13.5505,0.994989 -14.5455,0 -0.8571,-0.857099 0.8571,-2.779264 0,-3.636363 -0.8571,-0.8571 -2.7793,0.857099 -3.6364,0 -0.8571,-0.8571 0.8571,-2.779265 0,-3.636364 -1.8181,-1.818182 -9.0909,1.818182 -10.909,0 -0.8571,-0.857099 0.8571,-2.779265 0,-3.636364 -0.7435,-0.743405 -9.4673,0.720895 -10.9091,0 -1.5333,-0.766613 -2.1032,-2.869751 -3.6364,-3.636363 -0.4966,-0.248315 -21.3216,-0.248315 -21.8182,0 -1.5332,0.766612 -2.0101,3.094286 -3.6363,3.636363 -2.2999,0.766613 -4.9729,-0.766613 -7.2728,0 -1.6262,0.542077 -2.1031,2.869751 -3.6363,3.636364 -2.1683,1.084154 -5.5586,-1.714198 -7.2728,0 -0.8571,0.857099 0.8571,2.779264 0,3.636364 -1.7142,1.714198 -5.1044,-1.084155 -7.2727,0 -1.5332,0.766612 -2.1031,2.86975 -3.6364,3.636363 -1.0841,0.542077 -2.5522,-0.542077 -3.6363,0 -1.5332,0.766613 -2.1032,2.869751 -3.6364,3.636364 -1.0841,0.542077 -2.7792,-0.857099 -3.6363,0 -0.8571,0.857099 0.8571,2.779264 0,3.636363 -1.7142,1.714199 -5.2557,-1.344727 -7.2728,0 -11.009,-8.973126 -6.2547,9.891138 -7.2727,10.909091 -0.8571,0.857099 -2.6278,-0.672364 -3.6364,0 -21.084,14.055993 -2.6927,1.749115 -7.2727,10.909091 -7.5668,15.133675 0.251,-3.887402 -7.2727,3.636364 -0.8571,0.857099 0.8571,2.779264 0,3.636363 -0.8571,0.8571 -2.5522,-0.542077 -3.6364,0 -1.5332,0.766613 -2.4242,2.424243 -3.6363,3.636364 -1.2122,1.212121 -2.4243,2.424243 -3.6364,3.636364 -3.6364,3.636363 -7.8235,6.795015 -10.9091,10.909094 -2.6222,3.49629 -3.7764,8.28687 -7.2727,10.90909 -1.9394,1.45454 -5.1044,-1.08416 -7.2728,0 -1.0841,0.54207 0.8571,2.77926 0,3.63636 -1.9165,1.91653 -5.3562,1.71983 -7.2727,3.63636 -0.8571,0.8571 0.8571,2.77927 0,3.63637 -1.9165,1.91653 -5.0175,2.13291 -7.2727,3.63636 -1.4263,0.95087 -2.4243,2.42424 -3.6364,3.63637 -1.2121,1.21212 -2.8697,2.10313 -3.6363,3.63636 0,9.69697 1.2121,-1.21212 -3.6364,3.63636 -0.8571,0.8571 0.8571,2.77927 0,3.63637 -7.5238,7.52376 0.2941,-11.49731 -7.2727,3.63636 -0.5421,1.08415 0.8571,2.77926 0,3.63636 -0.8571,0.8571 -2.7793,-0.8571 -3.6364,0 -0.8571,0.8571 0.8571,2.77927 0,3.63637 -0.8571,0.8571 -2.7793,-0.8571 -3.6364,0 -0.8571,0.8571 0.8571,2.77926 0,3.63636 -0.8571,0.8571 -2.7792,-0.8571 -3.6363,0 -1.7142,1.7142 1.7142,5.55853 0,7.27273 -0.8571,0.8571 -2.7793,-0.8571 -3.6364,0 -0.8571,0.8571 0.8571,2.77926 0,3.63636 -0.8571,0.8571 -2.7792,-0.8571 -3.6363,0 -0.8571,0.8571 0.542,2.55221 0,3.63637 -0.7667,1.53322 -2.8698,2.10313 -3.6364,3.63636 -0.5421,1.08415 0.8571,2.77926 0,3.63636 -0.8571,0.8571 -2.7793,-0.8571 -3.6364,0 -1.7142,1.7142 1.7142,5.55853 0,7.27273 -7.5237,7.52377 0.2941,-11.49731 -7.2727,3.63636 -4.4781,8.95619 10.5554,-3.28267 -3.6364,10.90909 -0.8571,0.8571 -2.7792,-0.85709 -3.6363,0 -14.1918,14.19177 0.8417,1.95291 -3.6364,10.9091 -0.7666,1.53322 -2.8697,2.10313 -3.6364,3.63636 -0.542,1.08415 0,2.42424 0,3.63636 -1.2121,2.42425 -2.1329,5.01755 -3.6363,7.27273 -0.9509,1.4263 -2.6855,2.21006 -3.6364,3.63636 -1.5034,2.25518 -2.1329,5.01755 -3.6363,7.27273 -0.9509,1.4263 -2.6855,2.21007 -3.6364,3.63636 -1.5035,2.25518 -2.1329,5.01755 -3.6364,7.27273 -0.9508,1.4263 -2.6855,2.21007 -3.6363,3.63637 -1.2122,2.42424 -2.4243,4.84848 -3.6364,7.27272 0,1.21212 0.5421,2.55221 0,3.63637 -0.7666,1.53322 -2.8698,2.10313 -3.6364,3.63636 -0.542,1.08415 0.5421,2.55221 0,3.63636 -0.7666,1.53323 -2.6855,2.21007 -3.6363,3.63637 -1.5035,2.25517 -2.1329,5.01755 -3.6364,7.27272 -0.9509,1.4263 -2.8697,2.10314 -3.6364,3.63637 -0.542,1.08415 0.5421,2.55221 0,3.63636 -0.7666,1.53323 -2.8697,2.10314 -3.6363,3.63637 -0.5421,1.08415 0.6723,2.62781 0,3.63636 -2.8526,4.2789 -8.0565,6.63019 -10.9091,10.90909 -1.5035,2.25518 -2.2419,4.94859 -3.6364,7.27273 -2.2485,3.74755 -5.0242,7.16153 -7.2727,10.90909 -1.3945,2.32413 -2.2419,4.94859 -3.6364,7.27273 -2.2485,3.74755 -5.0242,7.16153 -7.2727,10.90909 -1.3945,2.32413 -2.0101,5.10442 -3.6364,7.27272 -15.7283,15.72833 -0.5699,-0.96331 -10.909,14.54546 -0.9509,1.4263 -2.8698,2.10314 -3.6364,3.63636 -0.5421,1.08416 0.5421,2.55221 0,3.63637 -0.7666,1.53322 -2.8698,2.10313 -3.6364,3.63636 -1.0841,2.16831 1.0842,5.10442 0,7.27273 -1.5332,3.06645 -5.7395,4.20627 -7.2727,7.27272 -0.5421,1.08416 0.3833,2.48645 0,3.63637 -2.5294,7.5881 -8.3797,10.59371 -10.9091,18.18182 -0.3833,1.14991 0.5421,2.5522 0,3.63636 -0.7666,1.53322 -2.8697,2.10314 -3.6364,3.63636 -1.7142,3.4284 -2.2128,7.35018 -3.6363,10.90909 -1.0066,2.51653 -2.6298,4.7562 -3.6364,7.27273 -1.4235,3.55891 -2.2128,7.35018 -3.6363,10.90909 -1.0067,2.51653 -2.5687,4.78149 -3.6364,7.27273 -2.5713,5.99969 -4.3536,12.34347 -7.2727,18.18182 -0.7667,1.53322 -2.9998,2.04477 -3.6364,3.63636 -1.8561,4.64025 -2.056,9.80422 -3.6364,14.54546 -0.8571,2.57129 -2.7792,4.70143 -3.6363,7.27272 -0.3833,1.14992 0.3833,2.48645 0,3.63637 -11.2744,22.54864 -0.463,-1.78441 -3.6364,10.90909 -0.9296,3.71862 -1.9222,7.48069 -3.6364,10.90909 -0.7666,1.53322 -3.2206,1.97335 -3.6363,3.63636 -0.882,3.52779 0.8819,7.3813 0,10.90909 -0.4158,1.66302 -3.0943,2.01013 -3.6364,3.63637 -0.7666,2.29983 0.7666,4.97289 0,7.27272 -0.5421,1.62623 -3.2206,1.97335 -3.6363,3.63637 -0.882,3.52779 0,7.27272 0,10.90909 0,1.21212 0.542,2.55221 0,3.63636 -0.7667,1.53323 -3.2207,1.97335 -3.6364,3.63637 -3.5278,4.41419 1.1759,9.84173 0,14.54545 -0.9297,3.71862 -2.8846,7.15046 -3.6364,10.90909 -0.4754,2.37717 0.588,4.92087 0,7.27273 -0.6573,2.62946 -2.7792,4.70143 -3.6363,7.27273 -0.3833,1.14991 0,2.42424 0,3.63636 l 0,7.27273 0,18.18181 c 0,1.63767 -0.5534,9.80243 0,10.9091 7.5668,15.13367 -0.2511,-3.88741 7.2727,3.63636 0.8571,0.8571 -0.8571,2.77926 0,3.63636 1.7142,1.7142 5.5585,-1.7142 7.2727,0 1.7142,1.7142 -1.0841,5.10442 0,7.27273 0.7666,1.53323 2.8698,2.10314 3.6364,3.63636 0.5421,1.08416 -0.5421,2.55221 0,3.63637 0.7666,1.53322 2.8697,2.10314 3.6363,3.63636 0.5421,1.08415 -0.8571,2.77927 0,3.63636 0.8571,0.8571 2.7793,-0.85709 3.6364,0 1.7142,1.7142 -1.0841,5.10442 0,7.27273 0.7666,1.53323 2.8698,2.10314 3.6364,3.63637 0.542,1.08415 -0.8571,2.77926 0,3.63636 0.8571,0.8571 2.7792,-0.8571 3.6363,0 1.9166,1.91653 2.4243,4.84848 3.6364,7.27273 1.2121,2.42424 2.7793,4.70143 3.6364,7.27272 0.3833,1.14992 -0.8571,2.77927 0,3.63637 0.8571,0.8571 2.5522,-0.54208 3.6363,0 1.5333,0.76661 2.4243,2.42424 3.6364,3.63636 1.2121,1.21212 2.8697,2.10314 3.6364,3.63636 0.542,1.08416 -0.8571,2.77927 0,3.63637 0.8571,0.8571 2.5522,-0.54208 3.6363,0 1.5332,0.76661 2.1032,2.86975 3.6364,3.63636 1.0841,0.54208 2.5522,-0.54208 3.6363,0 1.5333,0.76661 2.1032,2.86975 3.6364,3.63637 1.0842,0.54207 2.5522,-0.54208 3.6364,0 1.5332,0.76661 2.1031,2.86975 3.6363,3.63636 1.0842,0.54208 2.5522,-0.54208 3.6364,0 1.5332,0.76661 2.1031,2.86975 3.6364,3.63636 1.0841,0.54208 2.7792,-0.8571 3.6363,0 7.5238,7.52377 -11.4973,-0.29411 3.6364,7.27273 1.0841,0.54208 2.5522,-0.54208 3.6364,0 1.5332,0.76661 2.1031,2.86975 3.6363,3.63636 1.0842,0.54208 2.7793,-0.8571 3.6364,0 0.8571,0.8571 -0.8571,2.77927 0,3.63637 0.019,0.0193 10.7875,-0.0304 10.9091,0 2.6294,0.65736 4.7014,2.77926 7.2727,3.63636 2.2998,0.76661 5.1044,-1.08415 7.2727,0 1.5333,0.76661 2.1032,2.86975 3.6364,3.63636 2.1683,1.08416 4.9729,-0.76661 7.2727,0 2.5713,0.8571 4.7014,2.77927 7.2727,3.63637 2.2999,0.76661 5.1045,-1.08416 7.2728,0 1.5332,0.76661 2.1031,2.86975 3.6363,3.63636 2.1683,1.08416 5.1045,-1.08415 7.2728,0 1.5332,0.76661 2.1031,2.86975 3.6363,3.63637 2.2856,1.14276 12.2599,-1.14277 14.5455,0 1.0841,0.54207 -0.8571,2.77926 0,3.63636 0.7434,0.7434 9.4673,-0.7209 10.9091,0 1.5332,0.76661 2.1031,2.86975 3.6363,3.63636 1.4418,0.7209 10.1657,-0.7434 10.9091,0 0.8571,0.8571 -0.8571,2.77927 0,3.63637 1.1987,1.19868 11.914,-0.87715 14.5455,0 1.6262,0.54207 2.1031,2.86975 3.6363,3.63636 1.0842,0.54208 2.4243,0 3.6364,0 2.4242,0 4.9729,-0.76661 7.2727,0 1.6263,0.54208 2.1032,2.86975 3.6364,3.63636 2.5118,1.25588 16.9054,-1.27643 18.1818,0 0.8571,0.8571 -0.8571,2.77927 0,3.63637 0.117,0.11694 10.0272,0 10.9091,0 l 3.6364,0 c 1.2121,0 2.5522,-0.54208 3.6363,0 1.5333,0.76661 2.1032,2.86975 3.6364,3.63636 2.2941,1.14704 15.8877,-1.14703 18.1818,0 1.5332,0.76661 2.1032,2.86975 3.6364,3.63636 1.9558,0.97792 11.6414,-0.58081 14.5454,0 1.1778,0.23555 18.3175,5.38675 21.8182,3.63637 1.5332,-0.76662 2.4243,-2.42424 3.6364,-3.63637 1.2121,-1.21212 2.6855,-2.21006 3.6363,-3.63636 1.5035,-2.25518 2.133,-5.01755 3.6364,-7.27273 1.9017,-2.8526 4.8485,-4.84848 7.2727,-7.27272 8.3376,-8.33759 -1.5332,2.29983 7.2728,-10.90909 5.5474,-8.32111 2.8784,2.27378 7.2727,-10.9091 0.3833,-1.14992 -0.5421,-2.55221 0,-3.63636 8.3211,-16.64221 -1.5072,15.43061 7.2727,-10.90909 3.7085,-11.12546 -12.1106,9.07495 3.6364,-14.54545 0.6723,-1.00855 3.0943,1.08415 3.6363,0 2.2351,-4.47009 2.056,-9.80422 3.6364,-14.54546 0.8571,-2.5713 2.4242,-4.84848 3.6364,-7.27273 1.2121,-6.0606 1.9384,-12.23899 3.6363,-18.18181 0.7446,-2.60611 2.4243,-4.84849 3.6364,-7.27273 2.4242,-4.84849 5.1374,-9.56298 7.2727,-14.54546 1.5099,-3.52314 2.2128,-7.35018 3.6364,-10.90909 1.0066,-2.51653 2.7793,-4.70143 3.6364,-7.27272 1.5804,-4.74124 2.0559,-9.80422 3.6363,-14.54546 6.2762,-18.82842 2.2327,8.42195 7.2727,-21.81818 0.3986,-2.39126 0,-4.84849 0,-7.27273 1.2122,-3.63636 2.8847,-7.15046 3.6364,-10.90909 0.4754,-2.37716 0,-4.84848 0,-7.27273 l 0,-21.81818 0,-65.45454 0,-36.36364 c 0,-3.42486 0.6895,-16.11323 0,-18.18182 -0.5421,-1.62623 -2.8697,-2.10314 -3.6364,-3.63636 -1.0727,-2.14553 0.8338,-8.40788 0,-10.90909 -0.8571,-2.5713 -2.7792,-4.70143 -3.6363,-7.27273 -1.0909,-3.27273 1.0909,-7.63636 0,-10.90909 -0.5421,-1.62623 -3.0943,-2.01013 -3.6364,-3.63636 -0.7666,-2.29984 0.588,-4.92087 0,-7.27273 -0.6573,-2.62946 -2.979,-4.64327 -3.6363,-7.27273 -0.588,-2.35186 1.0841,-5.10442 0,-7.27273 -0.5421,-1.08415 -3.0943,1.08416 -3.6364,0 -1.4546,-2.90909 1.4545,-8 0,-10.90909 -0.7666,-1.53322 -3.0943,-2.01013 -3.6364,-3.63636 -1.1499,-3.44976 0,-7.27273 0,-10.90909 l 0,-29.09091 c 0,-14.54546 1.2121,6.06061 -3.6363,-3.63636 -0.122,-0.24388 -0.3014,-17.57904 0,-18.18182 0.7666,-1.53323 2.8697,-2.10314 3.6363,-3.63637 1.1428,-2.28553 -1.1427,-12.25992 0,-14.54545 0.7666,-1.53323 2.8698,-2.10314 3.6364,-3.63636 1.0841,-2.16831 -0.7666,-4.97289 0,-7.27273 0.8571,-2.5713 2.979,-4.64327 3.6364,-7.27273 0.5879,-2.35186 0,-4.84848 0,-7.27273 0,-1.21212 -0.5421,-2.55221 0,-3.63636 0.7666,-1.53323 2.8697,-2.10314 3.6363,-3.63636 0.5421,-1.08416 0,-2.42425 0,-3.63637 l 0,-3.63636 c 0,-1.21212 -1.2121,-3.63636 0,-3.63636 1.2121,0 -1.2121,3.63636 0,3.63636 1.7142,0 2.1032,-2.86975 3.6364,-3.63636 0.9402,-0.4701 19.2407,0 21.8182,0 l 7.2727,0 c 1.2121,0 2.7793,0.85709 3.6364,0 1.7142,-1.7142 -1.0842,-5.10442 0,-7.27273 0.7666,-1.53323 2.8697,-2.10314 3.6363,-3.63637 1.1533,-2.3066 -1.1811,-15.81955 0,-18.18181 0.7666,-1.53323 2.8698,-2.10314 3.6364,-3.63637 1.1618,-2.32371 -0.9757,-11.61855 0,-14.54545 0.8571,-2.5713 2.7792,-4.70143 3.6363,-7.27273 0.7228,-2.16826 0,-18.29503 0,-21.81818 l 0,-3.63636 c 0,-1.21213 -0.8571,-2.77927 0,-3.63637 0.8571,-0.8571 2.7793,0.8571 3.6364,0 0.8571,-0.8571 -0.8571,-2.77926 0,-3.63636 4.9965,-4.99654 12.0128,-3.63637 18.1818,-3.63637 l 3.6364,0 c 1.2121,0 2.5522,0.54208 3.6364,0 1.5332,-0.76661 2.1031,-2.86975 3.6363,-3.63636 0.9562,-0.47807 12.6439,0 14.5455,0 1.2121,0 3.6363,-1.21212 3.6363,0 0,1.21212 -4.8485,0 -3.6363,0 l 10.9091,0 21.8181,0 7.2728,0 c 2.4242,0 4.9729,0.76661 7.2727,0 1.6262,-0.54208 2.1031,-2.86975 3.6364,-3.63636 2.1683,-1.08416 5.5585,1.7142 7.2727,0 0.8571,-0.8571 -0.8571,-2.77927 0,-3.63637"
       id="path4875"
       inkscape:connector-curvature="0"
       sodipodi:nodetypes="cccsscsccsssscssssccsssssscccssscssssccccccccsssscccsscccsssccssscssssscsscssssssssssccssssssscccccscccccccscccccscsccccccccsscccccsccssccscccccscccccsscscsssccccssccscssscscsccccccccscccscsscssssssccsssssscsccscsscscscsscsssscsccscssscssccssccscccscccccsscsscccccscsccsssssssscsssccsssssssccsssccsscsc" />
    <path
       style="fill:#e9c6af;fill-rule:evenodd;stroke:#000000;stroke-width:1px;stroke-linecap:butt;stroke-linejoin:miter;stroke-opacity:1"
       d="m 1163.6364,1023.2713 c -1.3123,-8.3637 -16.5614,-1.8841 -21.8182,-3.6364 -6.5816,2.1918 -6.763,-5.8907 -10.9091,-7.2727 -2.2998,-0.7666 -4.9729,0.7666 -7.2727,0 -5.1426,-1.7142 -9.563,-5.1374 -14.5455,-7.2727 -3.5231,-1.5099 -7.3502,-2.2128 -10.9091,-3.6364 -2.5165,-1.0066 -4.7014,-2.77925 -7.2727,-3.63635 -1.1499,-0.38331 -2.4865,0.38331 -3.6364,0 -2.5713,-0.8571 -4.6432,-2.979 -7.2727,-3.63636 -1.7716,-0.4429 -12.6226,0.9614 -14.5455,0 -1.5332,-0.76662 -2.1031,-2.86975 -3.6363,-3.63637 -1.1067,-0.55333 -9.2714,0 -10.9091,0 -8.4849,0 -16.9697,0 -25.4546,0 -19.3939,0 -38.78783,0 -58.18177,0 -10.90909,0 -21.81819,0 -32.72728,0 -1.4375,0 -16.62878,-0.77651 -18.18181,0 -1.53323,0.76662 -2.10314,2.86975 -3.63637,3.63637 -2.90909,1.45454 -8,-1.45455 -10.90909,0 -1.53322,0.76661 -2.10314,2.86975 -3.63636,3.63636 -1.08416,0.54208 -2.55221,-0.54208 -3.63637,0 -1.53322,0.76661 -2.01013,3.09425 -3.63636,3.63635 -2.29984,0.7666 -4.97289,-0.7666 -7.27273,0 -1.62623,0.5421 -2.21006,2.6855 -3.63636,3.6364 -2.25518,1.5034 -4.70143,2.7792 -7.27273,3.6363 -1.14992,0.3833 -2.48644,-0.3833 -3.63636,0 -2.5713,0.8571 -4.70143,2.7793 -7.27273,3.6364 -1.14992,0.3833 -2.55221,-0.5421 -3.63636,0 -1.53323,0.7666 -2.10314,2.8698 -3.63637,3.6364 -8.95618,4.4781 3.28268,-10.5554 -10.90909,3.6363 -0.8571,0.8571 1.08416,3.0943 0,3.6364 -2.16831,1.0841 -5.10442,-1.0842 -7.27272,0 -1.08416,0.5421 0.85709,2.7793 0,3.6364 -0.8571,0.8571 -2.55221,-0.5421 -3.63637,0 -3.06645,1.5332 -4.20627,5.7395 -7.27273,7.2727 -1.08415,0.5421 -2.5522,-0.5421 -3.63636,0 -1.53322,0.7666 -2.10314,2.8697 -3.63636,3.6364 -1.08416,0.542 -2.77927,-0.8571 -3.63637,0 -0.8571,0.857 0.8571,2.7792 0,3.6363 -0.8571,0.8571 -2.55221,-0.5421 -3.63636,0 -3.57829,1.7892 -10.96717,12.7563 -14.54545,14.5455 -1.08416,0.542 -2.77927,-0.8571 -3.63637,0 -0.8571,0.8571 0.8571,2.7792 0,3.6363 -0.8571,0.8571 -2.77926,-0.8571 -3.63636,0 -0.8571,0.8571 0.8571,2.7793 0,3.6364 -0.8571,0.8571 -2.42424,0 -3.63637,0 0,1.2121 0.54208,2.5522 0,3.6364 -0.75227,1.5045 -9.36777,9.8815 -10.90909,10.9091 -2.25517,1.5034 -5.35619,1.7198 -7.27272,3.6363 -0.8571,0.8571 0.54207,2.5522 0,3.6364 -0.76662,1.5332 -2.42425,2.4242 -3.63637,3.6363 -1.21212,1.2122 -2.10314,2.8698 -3.63636,3.6364 -1.08415,0.5421 -2.77927,-0.8571 -3.63636,0 -1.91654,1.9165 -2.77927,4.7014 -3.63637,7.2727 -0.3833,1.15 0.8571,2.7793 0,3.6364 -1.91653,1.9165 -5.35619,1.7198 -7.27273,3.6364 -0.85709,0.8571 0.8571,2.7792 0,3.6363 -1.91653,1.9166 -5.35619,1.7199 -7.27272,3.6364 -0.8571,0.8571 0.8571,2.7793 0,3.6364 -1.91653,1.9165 -5.3562,1.7198 -7.27273,3.6363 -0.8571,0.8571 0,2.4243 0,3.6364 -1.21212,0 -2.55221,-0.5421 -3.63636,0 -6.6946,3.3473 -0.57813,7.5618 -7.27273,10.9091 -1.08415,0.542 -2.42424,0 -3.63636,0 -1.21213,2.4242 -1.71984,5.3562 -3.63637,7.2727 -0.8571,0.8571 -2.77926,-0.8571 -3.63636,0 -0.8571,0.8571 0.8571,2.7793 0,3.6364 -0.8571,0.8571 -2.77927,-0.8571 -3.63637,0 -0.85709,0.8571 0.54208,2.5522 0,3.6363 -0.76661,1.5332 -2.42424,2.4243 -3.63636,3.6364 -1.21212,1.2121 -2.10314,2.8697 -3.63636,3.6364 -1.08416,0.542 -2.77927,-0.8571 -3.63637,0 -0.8571,0.857 0.54208,2.5522 0,3.6363 -7.56683,15.1337 0.25104,-3.8874 -7.27272,3.6364 -0.8571,0.8571 0.8571,2.7792 0,3.6363 -0.8571,0.8571 -2.42425,0 -3.63637,0 0,1.2122 0.54208,2.5523 0,3.6364 -7.56683,15.1337 0.25104,-3.8874 -7.27272,3.6364 -0.8571,0.8571 0.54207,2.5522 0,3.6363 -1.61153,3.2231 -8.70227,7.5989 -10.9091,10.9091 -1.50345,2.2552 -2.13291,5.0176 -3.63636,7.2728 -1.90173,2.8525 -5.7395,4.2062 -7.27273,7.2727 -1.08415,2.1683 1.7142,5.5585 0,7.2727 -0.8571,0.8571 -2.77926,-0.8571 -3.63636,0 -0.74341,0.7434 0.72089,9.4673 0,10.9091 -0.76661,1.5332 -2.86975,2.1031 -3.63636,3.6364 -1.08416,2.1683 1.08415,5.1044 0,7.2727 -0.76662,1.5332 -2.86975,2.1031 -3.63637,3.6363 -1.14703,2.2941 1.14704,15.8878 0,18.1819 -0.76661,1.5332 -2.86975,2.1031 -3.63636,3.6363 -0.65752,1.3151 0,15.6526 0,18.1818 0,1.9016 -0.47808,13.5894 0,14.5455 1.53322,3.0665 5.7395,4.2063 7.27273,7.2727 1.45454,2.9091 -1.45455,8 0,10.9091 0.76661,1.5332 2.86975,2.1032 3.63636,3.6364 2.50792,5.0158 -4.40384,3.2526 3.63636,7.2727 1.08416,0.5421 2.55221,-0.5421 3.63637,0 9.81357,4.9068 -0.12552,1.6299 3.63636,7.2727 1.90173,2.8526 4.42013,5.371 7.27273,7.2728 1.00854,0.6723 2.46043,-0.294 3.63636,0 3.71862,0.9296 7.4807,1.9221 10.90909,3.6363 1.53323,0.7666 2.01014,3.0943 3.63637,3.6364 0.0165,0.01 10.90562,0 10.90909,0 0.8571,0.8571 -0.8571,2.7793 0,3.6364 1.11616,1.1161 11.84631,-0.6748 14.54545,0 2.62946,0.6573 4.70143,2.7792 7.27273,3.6363 1.41499,0.4717 10.34477,-0.5643 10.90909,0 0.8571,0.8571 -0.8571,2.7793 0,3.6364 0.8571,0.8571 2.42424,0 3.63636,0 3.63637,0 7.27273,0 10.90909,0 11.70528,0 -6.20766,-0.8571 7.27273,3.6363 1.6646,0.5549 16.15216,0 18.18182,0 1.21212,0 2.48644,-0.3833 3.63636,0 2.5713,0.8571 4.70143,2.7793 7.27273,3.6364 1.14992,0.3833 2.48645,-0.3833 3.63636,0 2.5713,0.8571 4.70143,2.7793 7.27273,3.6364 1.14992,0.3833 2.42424,0 3.63637,0 3.63636,0 7.34334,-0.7132 10.90909,0 2.65775,0.5315 4.64326,2.979 7.27272,3.6363 2.35186,0.588 4.84849,0 7.27273,0 7.27273,0 14.54546,0 21.81818,0 1.64506,0 20.8491,0.4846 21.81818,0 1.53323,-0.7666 2.10314,-2.8697 3.63637,-3.6363 1.08415,-0.5421 2.55221,0.5421 3.63636,0 1.53323,-0.7666 2.10314,-2.8698 3.63637,-3.6364 2.1683,-1.0841 5.55852,1.7142 7.27272,0 1.91653,-1.9165 1.71983,-5.3562 3.63637,-7.2727 4.42903,-4.429 8.1244,-1.7034 10.90909,-7.2727 0.54207,-1.0842 -0.54208,-2.5523 0,-3.6364 1.53322,-3.0665 5.7395,-4.2063 7.27272,-7.2727 0.54208,-1.0842 -0.85709,-2.7793 0,-3.6364 0.8571,-0.8571 2.77927,0.8571 3.63637,0 1.81818,-1.8182 -1.81818,-9.0909 0,-10.9091 7.52376,-7.5238 -0.29411,11.4973 7.27273,-3.6364 0.54207,-1.0841 -0.54208,-2.5522 0,-3.6363 1.53322,-3.0665 5.7395,-4.2063 7.27272,-7.2727 0.54208,-1.0842 -0.8571,-2.7793 0,-3.6364 0.8571,-0.8571 2.77927,0.8571 3.63637,0 0.8571,-0.8571 -0.54208,-2.5522 0,-3.6364 8.3211,-16.6422 -1.50718,15.4306 7.27272,-10.9091 0.38331,-1.1499 -0.67236,-2.6278 0,-3.6363 1.90174,-2.8526 5.21569,-4.53 7.27273,-7.2728 1.62623,-2.1683 2.01013,-5.1044 3.63636,-7.2727 2.05704,-2.7427 5.21569,-4.53 7.27273,-7.2727 1.62623,-2.1683 2.24188,-4.9486 3.63637,-7.2727 2.24853,-3.7476 4.6505,-7.4128 7.27272,-10.9091 2.05704,-2.7427 5.7395,-4.2063 7.27273,-7.2728 0.54208,-1.0841 -0.8571,-2.7792 0,-3.6363 0.8571,-0.8571 2.77926,0.8571 3.63636,0 0.8571,-0.8571 -0.8571,-2.7793 0,-3.6364 0.8571,-0.8571 3.09429,1.0842 3.63637,0 1.08415,-2.1683 -0.76662,-4.9729 0,-7.2727 0.82078,-2.4624 9.5202,-8.1313 10.90909,-10.9091 0.54208,-1.0841 -0.54208,-2.5522 0,-3.6364 0.76661,-1.5332 2.6855,-2.21 3.63636,-3.6363 1.50345,-2.2552 2.42424,-4.8485 3.63637,-7.2727 1.21212,-2.4243 2.77926,-4.7015 3.63636,-7.2728 0.3833,-1.1499 -0.38331,-2.4864 0,-3.6363 0.8571,-2.5713 2.7793,-4.7015 3.6364,-7.2728 0.7666,-2.2998 -1.0842,-5.1044 0,-7.2727 0.7666,-1.5332 2.8697,-2.1031 3.6363,-3.6364 1.1428,-2.2855 -1.1427,-12.2599 0,-14.5454 1.5333,-3.0665 5.7395,-4.2063 7.2728,-7.2727 0.542,-1.0842 -0.3834,-2.4865 0,-3.6364 0.8571,-2.5713 2.7792,-4.7014 3.6363,-7.2727 0.3833,-1.15 -0.5421,-2.5522 0,-3.6364 0.7666,-1.5332 2.8698,-2.1031 3.6364,-3.6364 0.5421,-1.0841 -0.3833,-2.4864 0,-3.6363 0.8571,-2.5713 2.7792,-4.7015 3.6363,-7.2727 0.7667,-2.2999 -1.0841,-5.1045 0,-7.2728 0.7667,-1.5332 2.8698,-2.1031 3.6364,-3.6363 4.4781,-8.9562 -10.5554,3.2826 3.6364,-10.9091 0.8571,-0.8571 2.5522,0.542 3.6363,0 1.5333,-0.7666 2.265,-2.6079 3.6364,-3.6364 3.4963,-2.6222 7.8188,-4.1824 10.9091,-7.2727 0.8571,-0.8571 -1.0842,-3.0943 0,-3.6364 2.1683,-1.0841 5.1044,1.0842 7.2727,0 1.0842,-0.5421 -0.5421,-2.5522 0,-3.6363 7.5669,-15.1337 -0.251,3.8874 7.2727,-3.6364 0.8571,-0.8571 -0.8571,-2.7793 0,-3.6364 1.7142,-1.7142 5.5586,1.7142 7.2728,0 0.8571,-0.8571 -0.8571,-2.7792 0,-3.6363 0.8571,-0.8571 2.5522,0.542 3.6363,0 1.5333,-0.7667 2.4243,-2.4243 3.6364,-3.6364 1.2121,-1.2121 2.8697,-2.1031 3.6364,-3.6364 1.0841,-2.1683 -1.7142,-5.5585 0,-7.2727 0.8571,-0.8571 2.7792,0.8571 3.6363,0 0.8571,-0.8571 -0.8571,-2.7793 0,-3.6364 0.8571,-0.8571 2.7793,0.8571 3.6364,0 2.3808,-2.3807 -3.6701,-8.4736 3.6364,-10.909 3.4497,-1.15 7.2727,0 10.909,0 3.6364,0 7.2728,0 10.9091,0 1.2122,0 2.4605,-0.294 3.6364,0 3.7186,0.9296 7.1905,2.7067 10.9091,3.6363 2.3519,0.588 4.8485,0 7.2727,0 4.8485,0 9.697,0 14.5455,0 3.0787,0 12.5905,0.6517 14.5454,0 1.6263,-0.5421 2.4243,-2.4242 3.6364,-3.6363"
       id="path4877"
       inkscape:connector-curvature="0" />
    <path
       style="fill:none;fill-rule:evenodd;stroke:#000000;stroke-width:1px;stroke-linecap:butt;stroke-linejoin:miter;stroke-opacity:1"
       d="m 2053.2977,145.01703 c -4.8485,-3.63637 -29.919,-27.71849 -35.1159,-30.83664 -1.817,-1.0902 -8.8797,1.01467 -10.9091,0 -1.5332,-0.76662 -2.1031,-2.86975 -3.6363,-3.63637 -1.0842,-0.54207 -2.4478,0.23772 -3.6364,0 -4.9007,-0.98013 -9.8042,-2.05595 -14.5455,-3.63636 -2.5713,-0.8571 -4.7349,-2.68468 -7.2727,-3.63636 -7.178,-2.69176 -14.6401,-4.580974 -21.8182,-7.272731 -6.2066,1.286608 -7.0001,-5.31824 -10.9091,-7.272727 -0.9401,-0.470092 -19.2407,0 -21.8181,0 l -3.6364,0 c -1.2121,0 -2.7793,-0.857099 -3.6364,0 -0.8571,0.857099 0.8571,2.779265 0,3.636364 -0.8571,0.857099 -2.5522,-0.542077 -3.6363,0 -1.5333,0.766613 -2.1032,2.869751 -3.6364,3.636363 -1.0841,0.542077 -2.7793,-0.857099 -3.6364,0 -0.8571,0.857099 0.8571,2.779265 0,3.636364 -0.8571,0.857097 -2.7792,-0.857099 -3.6363,0 -1.8182,1.818177 1.8182,9.090907 0,10.909087 -0.8571,0.8571 -2.7793,-0.8571 -3.6364,0 -0.995,0.99499 0.9864,12.57278 0,14.54546 -0.7666,1.53322 -2.8697,2.10314 -3.6363,3.63636 -0.5421,1.08416 0.8571,2.77927 0,3.63637 -0.8571,0.85709 -2.7793,-0.8571 -3.6364,0 -1.7142,1.71419 1.0841,5.10441 0,7.27272 -0.7666,1.53323 -2.8698,2.10314 -3.6364,3.63637 -0.5421,1.08415 0.8571,2.77926 0,3.63636 -0.8571,0.8571 -2.7792,-0.8571 -3.6363,0 -0.995,0.99499 0.9863,12.57277 0,14.54545 -0.7667,1.53323 -2.8698,2.10314 -3.6364,3.63637 -1.0842,2.16831 1.0842,5.10442 0,7.27273 -0.7666,1.53322 -2.8698,2.10313 -3.6364,3.63636 -1.4545,2.90909 1.4546,8 0,10.90909 -0.542,1.08415 -3.0943,-1.08415 -3.6363,0 -1.0842,2.16831 0.7666,4.97289 0,7.27273 -0.5421,1.62623 -2.8698,2.10314 -3.6364,3.63636 -0.5421,1.08416 0.3833,2.48645 0,3.63636 -0.8571,2.5713 -2.7793,4.70143 -3.6364,7.27273 -0.3833,1.14992 0.5421,2.55221 0,3.63637 -0.7666,1.53322 -2.8697,2.10313 -3.6363,3.63636 -0.5421,1.08415 0.3833,2.48644 0,3.63636 -0.8571,2.5713 -2.7793,4.70143 -3.6364,7.27273 -0.7666,2.29984 1.7142,5.55853 0,7.27273 -0.8571,0.8571 -3.0943,-1.08416 -3.6363,0 -3.2525,2.86856 1.6262,7.65663 0,10.90909 -1.5333,3.06645 -5.7395,4.20627 -7.2728,7.27273 -0.5421,1.08415 0.5421,2.55221 0,3.63636 -0.7666,1.53322 -2.8697,2.10314 -3.6363,3.63636 -0.5421,1.08416 0.542,2.55221 0,3.63637 -1.5333,3.06645 -5.7395,4.20627 -7.2728,7.27272 -1.0841,2.16831 1.0842,5.10442 0,7.27273 -1.9443,3.88861 -5.3284,3.38412 -7.2727,7.27273 -1.1428,2.28553 1.1428,12.25992 0,14.54545 -0.7666,1.53323 -2.8697,2.10314 -3.6364,3.63637 -1.0841,2.1683 1.0842,5.10442 0,7.27272 -0.7666,1.53323 -2.8697,2.10314 -3.6363,3.63637 -1.0842,2.16831 1.0841,5.10442 0,7.27272 -0.7666,1.53323 -2.8698,2.10314 -3.6364,3.63637 -1.1271,2.25419 1.1159,15.95001 0,18.18182 -0.5421,1.08415 -2.7792,-0.8571 -3.6363,0 -0.9968,0.99676 0.8523,15.62487 0,18.18181 -0.8571,2.5713 -2.7793,4.70143 -3.6364,7.27273 -0.8337,2.50121 1.0728,8.76356 0,10.90909 -0.7666,1.53323 -3.0943,2.01014 -3.6364,3.63637 -0.7666,2.29983 0.7666,4.97289 0,7.27272 -0.5421,1.62623 -2.8697,2.10314 -3.6363,3.63637 -0.5421,1.08415 0,2.42424 0,3.63636 0,2.42424 0.7666,4.97289 0,7.27273 -0.5421,1.62623 -2.8698,2.10314 -3.6364,3.63636 -1.4545,2.90909 1.4545,8 0,10.90909 -0.5421,1.08416 -3.0943,-1.08415 -3.6364,0 -1.0841,2.16831 0.7666,4.97289 0,7.27273 -0.542,1.62623 -2.8697,2.10314 -3.6363,3.63636 -1.0842,2.16831 1.0841,5.10442 0,7.27273 -0.7666,1.53323 -3.0943,2.01013 -3.6364,3.63636 -0.7666,2.29984 1.0842,5.10442 0,7.27273 -0.5421,1.08416 -3.0943,-1.08415 -3.6364,0 -1.0841,2.16831 0.588,4.92087 0,7.27273 -0.6573,2.62946 -2.7792,4.70143 -3.6363,7.27273 -0.3833,1.14992 0.5421,2.55221 0,3.63636 -0.7666,1.53323 -2.8698,2.10314 -3.6364,3.63636 -0.5421,1.08416 0.3833,2.48645 0,3.63637 -0.8571,2.57129 -2.7792,4.70143 -3.6363,7.27272 -0.3834,1.14992 0.542,2.55221 0,3.63637 -0.7667,1.53322 -3.0943,2.01013 -3.6364,3.63636 -0.7666,2.29984 1.0841,5.10442 0,7.27273 -0.5421,1.08415 -3.0943,-1.08416 -3.6364,0 -1.0841,2.16831 0.7666,4.97289 0,7.27273 -0.5421,1.62623 -2.8697,2.10313 -3.6363,3.63636 -0.5421,1.08415 0.542,2.55221 0,3.63636 -0.7667,1.53323 -2.8698,2.10314 -3.6364,3.63637 -1.0842,2.16831 1.0842,5.10442 0,7.27272 -0.7666,1.53323 -2.8698,2.10314 -3.6364,3.63637 -1.0841,2.16831 1.0842,5.10442 0,7.27273 -0.7666,1.53322 -2.8697,2.10313 -3.6363,3.63636 -0.5421,1.08415 0.542,2.55221 0,3.63636 -0.7666,1.53323 -2.8698,2.10314 -3.6364,3.63637 -1.1428,2.28553 1.1428,12.25992 0,14.54545 -0.7666,1.53323 -2.8697,2.10314 -3.6364,3.63636 -1.1427,2.28554 1.1428,12.25992 0,14.54546 -0.7666,1.53322 -2.8697,2.10314 -3.6363,3.63636 -0.7209,1.44179 0.7434,10.16569 0,10.90909 -0.8571,0.8571 -2.7793,-0.8571 -3.6364,0 -1.126,1.12599 1.126,17.05583 0,18.18182 -0.8571,0.8571 -2.7792,-0.8571 -3.6363,0 -1.8182,1.81818 1.8181,9.09091 0,10.90909 -0.8571,0.8571 -2.7793,-0.8571 -3.6364,0 -0.995,0.99499 0.9863,12.57277 0,14.54546 -0.7666,1.53322 -2.8698,2.10314 -3.6364,3.63636 -1.1427,2.28554 1.1428,12.25992 0,14.54546 -0.7666,1.53322 -3.0943,2.01013 -3.6363,3.63636 -0.5549,1.66459 0,16.15216 0,18.18182 0,1.21212 0.8571,2.77926 0,3.63636 -0.8571,0.8571 -3.0943,-1.08415 -3.6364,0 -1.0842,2.16831 0.7666,4.97289 0,7.27273 -0.5421,1.62623 -2.8698,2.10314 -3.6364,3.63636 -0.478,0.95615 0,12.64393 0,14.54546 0,8.74055 0.3833,-1.53323 -3.6363,14.54545 -1.8182,7.27273 3.6363,0 0,10.90909 -0.5421,1.62623 -3.0943,2.01013 -3.6364,3.63637 -0.7092,2.12755 0,18.69698 0,21.81818 0,1.21212 0.8571,2.77926 0,3.63636 -0.8571,0.8571 -2.7793,-0.8571 -3.6364,0 -0.8571,0.8571 0,2.42424 0,3.63636 l 0,3.63637"
       id="path4879"
       inkscape:connector-curvature="0"
       sodipodi:nodetypes="csccsssccssssccsssssccssccsscccsccccssccsssccsccccccccccssccscccccscsccccccsccsccsccccccccccccccccccssssscsccccsssccsscsssssc" />
    <path
       style="fill:none;fill-rule:evenodd;stroke:#000000;stroke-width:1px;stroke-linecap:butt;stroke-linejoin:miter;stroke-opacity:1"
       d="m 1552.7273,721.45311 c 1.437,-0.0263 -1.0864,-26.91812 0,-29.0909 0.7666,-1.53323 2.8697,-2.10314 3.6363,-3.63637 1.0842,-2.16831 -1.0841,-5.10442 0,-7.27273 0.7666,-1.53322 2.8698,-2.10313 3.6364,-3.63636 0.5421,-1.08415 -0.5421,-2.55221 0,-3.63636 0.7666,-1.53323 2.8697,-2.10314 3.6364,-3.63637 4.4781,-8.95618 -10.5554,3.28267 3.6363,-10.90909 0.8571,-0.8571 3.0943,1.08416 3.6364,0 1.0841,-2.16831 -0.588,-4.92086 0,-7.27272 1.3147,-5.25893 5.5585,-9.40286 7.2727,-14.54546 0.3833,-1.14992 -0.3833,-2.48644 0,-3.63636 0.8571,-2.5713 2.7793,-4.70143 3.6364,-7.27273 0.3833,-1.14992 -0.5421,-2.55221 0,-3.63636 0.7666,-1.53323 2.8697,-2.10314 3.6363,-3.63637 1.7142,-3.42839 2.7068,-7.19047 3.6364,-10.90909 0.294,-1.17593 -0.5421,-2.55221 0,-3.63636 1.9545,-3.90898 5.3182,-7.00012 7.2727,-10.90909 0.5421,-1.08416 -0.4501,-2.51094 0,-3.63637 2.4243,-4.84848 4.8485,-9.69697 7.2728,-14.54545 0,-1.21212 -0.3833,-2.48645 0,-3.63636 2.5454,-7.63637 8.3636,-14.18182 10.9091,-21.81819 0.3833,-1.14992 -0.3834,-2.48644 0,-3.63636 0.8571,-2.5713 2.7792,-4.70143 3.6363,-7.27273 0.6683,-2.00482 -0.7774,-13.768 0,-14.54545 0.8571,-0.8571 3.0943,1.08415 3.6364,0 1.4545,-2.90909 -1.4546,-8 0,-10.90909 0.7666,-1.53323 3.2206,-1.97335 3.6363,-3.63637 0.882,-3.52779 0,-7.27272 0,-10.90909 0,-1.21212 -0.542,-2.55221 0,-3.63636 0.7667,-1.53323 2.8698,-2.10314 3.6364,-3.63636 0.5421,-1.08416 -0.5421,-2.55221 0,-3.63637 0.7666,-1.53322 2.8698,-2.10314 3.6364,-3.63636 1.4545,-2.90909 -1.4546,-8 0,-10.90909 0.7666,-1.53323 2.8697,-2.10314 3.6363,-3.63637 1.0842,-2.1683 -1.0841,-5.10442 0,-7.27272 0.7666,-1.53323 2.8698,-2.10314 3.6364,-3.63637 0.5421,-1.08415 0,-2.42424 0,-3.63636 0,-2.42424 -0.7666,-4.97289 0,-7.27273 0.5421,-1.62623 2.8697,-2.10314 3.6364,-3.63636 0.7209,-1.44179 -0.7434,-10.16569 0,-10.90909 0.8571,-0.8571 2.7792,0.8571 3.6363,0 1.7142,-1.7142 -0.7666,-4.97289 0,-7.27273 0.8571,-2.5713 2.7793,-4.70143 3.6364,-7.27273 0.3833,-1.14992 -0.5421,-2.55221 0,-3.63636 5.5446,-11.08931 2.8828,6.65071 7.2727,-10.90909 4.1606,-16.64221 -7.345,3.78095 3.6364,-18.18182 0.7666,-1.53323 2.6855,-2.21006 3.6363,-3.63636 12.2468,-18.37021 0.028,-0.0842 3.6364,-10.90909 0.8571,-2.5713 2.7793,-4.70143 3.6364,-7.27273 0.3833,-1.14992 -0.3833,-2.48645 0,-3.63637 0.8571,-2.57129 2.7792,-4.70143 3.6363,-7.27272 0.7666,-2.29984 -1.0841,-5.10442 0,-7.27273 0.7666,-1.53323 2.8698,-2.10314 3.6364,-3.63636 0.5533,-1.10667 0,-9.27143 0,-10.90909 0,-8.21541 -0.5421,1.62623 3.6364,-10.9091 0.7666,-2.29983 -1.0842,-5.10441 0,-7.27272 0.7666,-1.53323 2.8697,-2.10314 3.6363,-3.63637 1.0842,-2.1683 -1.0841,-5.10442 0,-7.27272 0.7666,-1.53323 2.8698,-2.10314 3.6364,-3.63637 0.5421,-1.08415 -0.3833,-2.48644 0,-3.63636 0.8571,-2.5713 2.7793,-4.70143 3.6364,-7.27273 0.3833,-1.14992 -0.3834,-2.48644 0,-3.63636 0.8571,-2.5713 2.7792,-4.70143 3.6363,-7.27273 0.7666,-2.29984 -1.0841,-5.10442 0,-7.27273 0.7666,-1.53322 2.8698,-2.10313 3.6364,-3.63636 1.0841,-2.16831 -1.7142,-5.55853 0,-7.27273 0.8571,-0.8571 2.7792,0.8571 3.6363,0 1.7142,-1.7142 -1.0841,-5.10442 0,-7.27272 0.7667,-1.53323 2.8698,-2.10314 3.6364,-3.63637 0.5421,-1.08415 -0.3833,-2.48644 0,-3.63636 1.2121,-2.42424 2.4242,-4.84849 3.6364,-7.27273 0,-1.21212 -0.3833,-2.48644 0,-3.63636 0.8571,-2.5713 2.979,-4.64327 3.6363,-7.27273 0.588,-2.35186 -0.7666,-4.97289 0,-7.27273 0.5421,-1.62623 3.0943,-2.01013 3.6364,-3.63636 0.7666,-2.29984 -0.7666,-4.97289 0,-7.27273 0.5421,-1.62623 2.6855,-2.21006 3.6364,-3.63636 1.2121,-2.42424 2.4242,-4.84849 3.6363,-7.27273 0,-1.21212 -0.5421,-2.55221 0,-3.63636 0.7666,-1.53323 2.8698,-2.10314 3.6364,-3.63637 0.5421,-1.08415 -0.3833,-2.48644 0,-3.63636 0.8571,-2.5713 2.7793,-4.70143 3.6364,-7.27273 1.0909,-3.27272 -1.091,-7.63636 0,-10.90909 0.542,-1.62623 2.8697,-2.10314 3.6363,-3.63636 0.5421,-1.08416 -0.5421,-2.55221 0,-3.63637 0.7666,-1.53322 2.8698,-2.10313 3.6364,-3.63636 1.4545,-2.90909 -1.4546,-8 0,-10.90909 0.7666,-1.53323 2.8697,-2.10314 3.6363,-3.63636 1.0842,-2.16831 -1.7142,-5.55853 0,-7.27273 0.8571,-0.8571 2.7793,0.8571 3.6364,0 0.8571,-0.8571 -0.8571,-2.77927 0,-3.63636 0.8571,-0.8571 2.4242,0 3.6364,0 2.4242,0 5.1044,1.08415 7.2727,0 1.0842,-0.54208 -1.0842,-3.09429 0,-3.63637 2.3525,-1.17627 13.2392,1.30624 14.5455,0 0.8571,-0.8571 -0.8571,-2.77926 0,-3.63636 0.8571,-0.8571 2.4242,0 3.6363,0 0,-1.21212 -0.8571,-2.77927 0,-3.63637 0.8571,-0.85709 2.7793,0.8571 3.6364,0 0.8571,-0.85709 -0.8571,-2.77926 0,-3.63636 0.8571,-0.8571 2.7792,0.8571 3.6363,0 0.8571,-0.8571 -1.2121,-3.63636 0,-3.63636 1.2122,0 -1.2121,3.63636 0,3.63636 7.5669,0 1.4632,-5.09952 3.6364,-7.27273 0.8571,-0.8571 2.7793,0.8571 3.6364,0 0.8571,-0.8571 -0.5421,-2.55221 0,-3.63636 1.5332,-3.06645 5.7395,-4.20628 7.2727,-7.272727 0.5421,-1.084154 -0.8571,-2.779265 0,-3.636364 0.8571,-0.857099 2.5522,0.542077 3.6364,0 1.5332,-0.766612 2.1031,-2.86975 3.6363,-3.636363 1.0842,-0.542077 2.5522,0.542077 3.6364,0 1.5332,-0.766613 2.0101,-3.094287 3.6364,-3.636364 2.2998,-0.766613 4.9728,0.766613 7.2727,0 1.6262,-0.542077 2.1031,-2.869751 3.6363,-3.636364 2.9091,-1.454545 8,1.454546 10.9091,0 1.5333,-0.766612 2.1032,-2.86975 3.6364,-3.636363 2.1683,-1.084154 5.1044,1.084154 7.2727,0 1.5333,-0.766613 2.1032,-2.869751 3.6364,-3.636364 1.1056,-0.552792 12.0345,0 14.5454,0 1.2122,0 2.4865,0.383307 3.6364,0 2.5713,-0.857099 4.8485,-2.424242 7.2727,-3.636363 2.4243,-1.212122 5.0176,-2.132913 7.2728,-3.636364 2.8526,-1.901732 4.2062,-5.739502 7.2727,-7.272727 2.1683,-1.084154 5.5585,1.714198 7.2727,0 1.7142,-1.714199 -1.7142,-5.558529 0,-7.272728 1.7142,-1.714198 5.5585,1.714199 7.2727,0 0.8571,-0.857099 -0.8571,-2.779264 0,-3.636363 0.8571,-0.857099 2.7793,0.857099 3.6364,0 0.8571,-0.857099 -0.8571,-2.779265 0,-3.636364 0.117,-0.116945 10.0272,0 10.9091,0 1.2121,0 3.6364,-1.212121 3.6364,0 0,1.212121 -2.4243,0 -3.6364,0"
       id="path4881"
       inkscape:connector-curvature="0" />
    <path
       style="fill:none;fill-rule:evenodd;stroke:#000000;stroke-width:1px;stroke-linecap:butt;stroke-linejoin:miter;stroke-opacity:1"
       d="m 1141.8182,1041.4531 c -12.4491,5.5857 -11.8602,-7.7483 -18.1818,-10.9091 -1.0842,-0.5421 -2.4243,0 -3.6364,0 -5.4124,0 -4.6414,0.5421 -10.9091,-3.6363 -1.4263,-0.9509 -2.2101,-2.6855 -3.6364,-3.6364 -2.2551,-1.5035 -5.0175,-2.1329 -7.2727,-3.6364 -6.6536,-4.4357 -0.3628,-4.6361 -10.9091,-7.2727 -2.3518,-0.588 -5.1044,1.0842 -7.2727,0 -1.0842,-0.5421 0,-2.4242 0,-3.6364 -2.4242,-1.2121 -4.7014,-2.7792 -7.2727,-3.6363 -2.2999,-0.7666 -5.5586,1.7142 -7.2728,0 -0.8571,-0.8571 0.8571,-2.7793 0,-3.6364 -1.8181,-1.81817 -9.0909,1.8182 -10.909,0 -0.8571,-0.8571 0.8571,-2.77925 0,-3.63635 -2.8427,-2.84264 -6.326,3.16305 -7.2728,3.63635 -1.0841,0.5421 -2.4864,-0.3833 -3.6363,0 -2.0781,0.6927 -20.6641,9.755 -21.8182,10.9091 -0.8571,0.8571 0.8571,2.7793 0,3.6364 -1.9166,1.9165 -5.0176,2.1329 -7.2727,3.6363 -1.4263,0.9509 -2.2101,2.6855 -3.6364,3.6364 -2.2552,1.5034 -4.8485,2.4242 -7.2727,3.6364 -2.4243,1.2121 -4.70147,2.7792 -7.27276,3.6363 -1.14992,0.3833 -2.55221,-0.5421 -3.63637,0 -1.53322,0.7666 -2.10314,2.8698 -3.63636,3.6364 -1.08416,0.5421 -2.77927,-0.8571 -3.63637,0 -1.91653,1.9165 -1.71983,5.3562 -3.63636,7.2727 -0.8571,0.8571 -2.55221,-0.5421 -3.63636,0 -3.06645,1.5332 -4.20628,5.7395 -7.27273,7.2727 -1.08415,0.5421 -2.77926,-0.8571 -3.63636,0 -0.8571,0.8571 0.8571,2.7793 0,3.6364 -1.7142,1.7142 -5.10442,-1.0841 -7.27273,0 -1.53323,0.7666 -2.10314,2.8698 -3.63636,3.6364 -1.08416,0.542 -2.55221,-0.5421 -3.63637,0 -1.53322,0.7666 -2.10314,2.8697 -3.63636,3.6363 -1.08416,0.5421 -2.55221,-0.542 -3.63637,0 -3.06645,1.5333 -4.20627,5.7395 -7.27272,7.2728 -1.08416,0.542 -2.77927,-0.8571 -3.63637,0 -0.8571,0.8571 0.8571,2.7792 0,3.6363 -0.8571,0.8571 -2.55221,-0.5421 -3.63636,0 -3.06645,1.5332 -4.20628,5.7395 -7.27273,7.2728 -1.08415,0.542 -2.55221,-0.5421 -3.63636,0 -2.31626,1.1581 -15.32448,15.3244 -18.18182,18.1818 l -3.63636,3.6363 c -1.21212,1.2122 -2.10314,2.8698 -3.63637,3.6364 -6.43716,3.2186 -1.24257,-5.4089 -7.27272,3.6364 -1.50345,2.2551 -2.77927,4.7014 -3.63637,7.2727 -0.3833,1.1499 0.8571,2.7793 0,3.6364 -7.52376,7.5237 0.29411,-11.4974 -7.27272,3.6363 -4.4781,8.9562 10.55539,-3.2827 -3.63637,10.9091 -0.8571,0.8571 -2.77926,-0.8571 -3.63636,0 -1.91653,1.9165 -2.13291,5.0176 -3.63637,7.2727 -2.20682,3.3103 -9.29756,7.6861 -10.90909,10.9091 -0.54207,1.0842 0.54208,2.5522 0,3.6364 -1.53322,3.0664 -5.7395,4.2063 -7.27272,7.2727 -0.54208,1.0842 0.54207,2.5522 0,3.6364 -0.76662,1.5332 -2.86975,2.1031 -3.63637,3.6363 -0.54207,1.0842 0.54208,2.5523 0,3.6364 -7.56683,15.1337 0.25104,-3.8874 -7.27272,3.6364 -0.8571,0.8571 0.54207,2.5522 0,3.6363 -0.76662,1.5333 -2.86976,2.1032 -3.63637,3.6364 -0.54208,1.0841 0.54208,2.5522 0,3.6364 -1.53322,3.0664 -5.37099,4.4201 -7.27273,7.2727 -1.50345,2.2552 -2.13291,5.0175 -3.63636,7.2727 -1.90173,2.8526 -5.7395,4.2063 -7.27273,7.2727 -0.54207,1.0842 0.54208,2.5523 0,3.6364 -0.76661,1.5332 -2.86975,2.1031 -3.63636,3.6364 -0.54208,1.0841 0.54208,2.5522 0,3.6363 -1.53323,3.0665 -5.7395,4.2063 -7.27273,7.2728 -0.54207,1.0841 0.8571,2.7792 0,3.6363 -0.8571,0.8571 -2.77926,-0.8571 -3.63636,0 -1.7142,1.7142 1.08415,5.1044 0,7.2727 -1.53323,3.0665 -5.7395,4.2063 -7.27273,7.2728 -1.08415,2.1683 1.7142,5.5585 0,7.2727 -0.8571,0.8571 -2.77926,-0.8571 -3.63636,0 -0.8571,0.8571 0.54208,2.5522 0,3.6364 -1.53323,3.0664 -5.7395,4.2062 -7.27273,7.2727 -1.08415,2.1683 1.7142,5.5585 0,7.2727 -0.8571,0.8571 -2.77926,-0.8571 -3.63636,0 -0.8571,0.8571 0.54207,2.5522 0,3.6364 -0.76662,1.5332 -2.86975,2.1031 -3.63637,3.6363 -1.94634,3.8927 3.14881,7.7603 -3.63636,14.5455 -0.8571,0.8571 -3.09429,-1.0841 -3.63636,0 -1.08416,2.1683 1.08415,5.1044 0,7.2727 -0.54208,1.0842 -2.77927,-0.8571 -3.63637,0 -1.81818,1.8182 1.81818,9.0909 0,10.9091 -0.8571,0.8571 -2.77926,-0.8571 -3.63636,0 -1.7142,1.7142 1.7142,5.5586 0,7.2727 -0.8571,0.8571 -2.77927,-0.857 -3.63636,0 -1.7142,1.7142 1.08415,5.1045 0,7.2728 -0.76662,1.5332 -2.86976,2.1031 -3.63637,3.6363 -1.08415,2.1683 1.08416,5.1045 0,7.2728 -0.76661,1.5332 -2.42424,2.4242 -3.63636,3.6363 -1.21212,1.2122 -2.86975,2.1032 -3.63637,3.6364 -0.54207,1.0841 0,2.4242 0,3.6364"
       id="path4883"
       inkscape:connector-curvature="0"
       sodipodi:nodetypes="csscccccccsccscssccccsccssccssccccccsscccccscssssscccccccscccsscccccsssssscsssccsscsssccssscsc" />
    <path
       style="fill:none;fill-rule:evenodd;stroke:#000000;stroke-width:1px;stroke-linecap:butt;stroke-linejoin:miter;stroke-opacity:1"
       d="m 661.81818,1325.0895 c 4.84849,-3.6364 9.69697,-7.2728 14.54546,-10.9091 0,-1.2121 -0.54208,-2.5522 0,-3.6364 1.53322,-3.0664 5.7395,-4.2063 7.27272,-7.2727 1.08416,-2.1683 -1.7142,-5.5585 0,-7.2727 0.8571,-0.8571 2.77927,0.8571 3.63637,0 0.8571,-0.8571 -0.8571,-2.7793 0,-3.6364 0.8571,-0.8571 2.77926,0.8571 3.63636,0 0.8571,-0.8571 -0.54208,-2.5522 0,-3.6364 0.76661,-1.5332 2.86975,-2.1031 3.63636,-3.6363 0.54208,-1.0842 -0.54207,-2.5522 0,-3.6364 1.61153,-3.223 8.70227,-7.5988 10.90909,-10.9091 0.45157,-0.6773 7.03972,-14.3124 7.27273,-14.5454 0.8571,-0.8571 3.09429,1.0841 3.63637,0 1.08415,-2.1683 0,-4.8485 0,-7.2728 0,-1.2121 -0.8571,-2.7792 0,-3.6363 0.85709,-0.8571 2.55221,0.5421 3.63636,0 3.06645,-1.5332 4.20628,-5.7395 7.27273,-7.2728 1.08415,-0.542 2.77926,0.8571 3.63636,0 0.8571,-0.857 -0.8571,-2.7792 0,-3.6363 0.8571,-0.8571 2.77926,0.8571 3.63636,0 1.7142,-1.7142 -1.71419,-5.5585 0,-7.2727 0.8571,-0.8571 2.77927,0.8571 3.63637,0 0.8571,-0.8571 -0.54208,-2.5523 0,-3.6364 0.76661,-1.5332 2.86975,-2.1031 3.63636,-3.6364 1.08416,-2.1683 -1.7142,-5.5585 0,-7.2727 0.8571,-0.8571 2.77927,0.8571 3.63636,0 1.7142,-1.7142 -1.08415,-5.1044 0,-7.2727 0.76662,-1.5332 2.86976,-2.1032 3.63637,-3.6364 0.54208,-1.0841 -0.54208,-2.5522 0,-3.6363 0.76661,-1.5333 3.09428,-2.0102 3.63636,-3.6364 0.76661,-2.2999 -1.08415,-5.1044 0,-7.2727 0.54208,-1.0842 2.55221,0.542 3.63637,0 8.0402,-4.0201 1.12844,-2.2569 3.63636,-7.2728 1.61152,-3.223 8.70227,-7.5988 10.90909,-10.9091 1.50345,-2.2551 2.42424,-4.8484 3.63636,-7.2727 1.21212,-2.4242 2.77927,-4.7014 3.63637,-7.2727 0.3833,-1.1499 -0.67237,-2.6278 0,-3.6364 1.90173,-2.8526 5.37099,-4.4201 7.27272,-7.2727 0.67237,-1.0086 -0.54207,-2.5522 0,-3.6364 0.76662,-1.5332 2.6855,-2.21 3.63637,-3.6363 12.2468,-18.3702 0.0281,-0.084 3.63636,-10.9091 4.39429,-13.1829 1.72533,-2.588 7.27273,-10.9091 9.17844,-4.1651 1.40029,-6.437 3.63636,-10.9091 0.76662,-1.5332 2.86975,-2.1031 3.63637,-3.6364 0.54207,-1.0841 0,-2.4242 0,-3.6363 1.21212,-2.4243 2.13291,-5.0176 3.63636,-7.2728 0.95087,-1.4263 2.86975,-2.1031 3.63636,-3.6363 0.54208,-1.0842 -0.8571,-2.7793 0,-3.6364 0.8571,-0.8571 2.77927,0.8571 3.63637,0 0.8571,-0.8571 -0.8571,-2.7793 0,-3.6363 0.8571,-0.8571 2.77926,0.857 3.63636,0 7.52377,-7.5238 -11.49731,0.2941 3.63636,-7.2728 2.16831,-1.0841 4.97289,0.7666 7.27273,0 5.1426,-1.7142 9.40286,-5.5585 14.54546,-7.2727 2.29983,-0.7666 5.10442,1.0841 7.27272,0 1.53323,-0.7666 2.10314,-2.8698 3.63637,-3.6364 1.08415,-0.542 2.55221,0.5421 3.63636,0 1.53323,-0.7666 2.10314,-2.8697 3.63636,-3.6363 2.16831,-1.0842 5.10442,1.0841 7.27273,0 3.06645,-1.5333 4.20628,-5.7395 7.27273,-7.2728 1.08415,-0.542 2.55221,0.5421 3.63636,0 0.9655,-0.4827 10.42635,-9.9436 10.90909,-10.909 1.08416,-2.1684 -1.71419,-5.5586 0,-7.2728 7.52377,-7.5237 -0.29411,11.4973 7.27273,-3.6363 0.54208,-1.0842 -1.08415,-3.0943 0,-3.6364 2.16831,-1.0842 4.84849,0 7.27273,0 7.27273,0 14.54545,0 21.81818,0 1.21212,0 2.42424,0 3.63636,0 1.21212,0 2.77927,-0.8571 3.63637,0 0.8571,0.8571 -0.8571,2.7793 0,3.6364 0.8571,0.8571 2.42424,0 3.63636,0 2.42424,0 4.84849,0 7.27273,0 6.0606,0 12.12121,0 18.18182,0 2.42424,0 4.84848,0 7.27272,0 1.21212,0 2.46044,0.2939 3.63637,0 3.71862,-0.9297 7.19047,-2.7067 10.90909,-3.6364 2.91524,-0.7288 12.68169,0.9319 14.54549,0 3.0664,-1.5332 4.2062,-5.7395 7.2727,-7.2727 1.0841,-0.5421 2.7793,0.8571 3.6364,0 0.8571,-0.8571 -0.5421,-2.5522 0,-3.6364 0.7666,-1.5332 2.4242,-2.4242 3.6363,-3.6364 1.2121,-1.2121 2.1032,-2.8697 3.6364,-3.6363 1.0841,-0.5421 2.7792,0.8571 3.6363,0 1.7142,-1.7142 -1.7142,-5.55855 0,-7.27275 0.8571,-0.8571 2.7793,0.8571 3.6364,0 0.8571,-0.8571 -0.8571,-2.77926 0,-3.63636 0.8571,-0.8571 2.7793,0.8571 3.6364,0 4.8485,-4.84849 -6.0606,-3.63637 3.6363,-3.63637"
       id="path4885"
       inkscape:connector-curvature="0" />
    <path
       style="fill:none;fill-rule:evenodd;stroke:#000000;stroke-width:1px;stroke-linecap:butt;stroke-linejoin:miter;stroke-opacity:1"
       d="m 1058.1818,1015.9986 c -15.7214,3.9303 -9.5477,3.6363 -18.1818,3.6363 -1.2121,0 -2.5522,-0.542 -3.6364,0 -1.5332,0.7666 -2.1031,2.8698 -3.6363,3.6364 -1.0842,0.5421 -2.5522,-0.5421 -3.6364,0 -3.0664,1.5332 -4.2063,5.7395 -7.2727,7.2727 -1.0842,0.5421 -2.7793,-0.8571 -3.6364,0 -0.8571,0.8571 0.8571,2.7793 0,3.6364 -0.8571,0.8571 -2.5522,-0.5421 -3.6363,0 -3.0665,1.5332 -4.2063,5.7395 -7.2728,7.2727 -1.0841,0.5421 -2.7792,-0.8571 -3.6363,0 -7.5238,7.5238 11.4973,-0.2941 -3.6364,7.2727 -1.08416,0.5421 -2.77927,-0.8571 -3.63636,0 -0.99499,0.995 0.98634,12.5728 0,14.5455 -0.76662,1.5332 -2.86976,2.1031 -3.63637,3.6364 -0.72089,1.4417 0.74341,10.1656 0,10.9091 -0.8571,0.857 -2.77926,-0.8571 -3.63636,0 -1.12599,1.1259 1.12599,17.0558 0,18.1818 -0.8571,0.8571 -2.77927,-0.8571 -3.63637,0 -1.91653,1.9165 -1.71983,5.3562 -3.63636,7.2727 -0.8571,0.8571 -3.09429,-1.0842 -3.63636,0 -1.08416,2.1683 1.08415,5.1044 0,7.2727 -0.54208,1.0842 -2.55221,-0.5421 -3.63637,0 -1.53322,0.7666 -2.10313,2.8698 -3.63636,3.6364 -1.08415,0.5421 -2.77926,-0.8571 -3.63636,0 -0.8571,0.8571 0.54207,2.5522 0,3.6364 -0.76662,1.5332 -2.86975,2.1031 -3.63637,3.6363 -0.54207,1.0842 0.8571,2.7793 0,3.6364 -0.8571,0.8571 -2.77926,-0.8571 -3.63636,0 -1.91653,1.9165 -2.13291,5.0175 -3.63636,7.2727 -5.56938,8.3541 -2.07709,-1.5593 -10.9091,7.2727 -0.85709,0.8571 0.54208,2.5522 0,3.6364 -8.3211,16.6422 1.50718,-15.4306 -7.27272,10.9091 -0.38331,1.1499 0.8571,2.7793 0,3.6364 -0.8571,0.857 -2.77927,-0.8571 -3.63637,0 -0.8571,0.857 0.54208,2.5522 0,3.6363 -0.76661,1.5332 -2.86975,2.1032 -3.63636,3.6364 -0.54208,1.0841 0.67236,2.6278 0,3.6363 -1.90173,2.8526 -5.7395,4.2063 -7.27273,7.2728 -1.08415,2.1683 1.08416,5.1044 0,7.2727 -0.54207,1.0841 -3.09428,-1.0842 -3.63636,0 -1.08416,2.1683 0.76661,4.9729 0,7.2727 -0.54208,1.6263 -2.86975,2.1032 -3.63636,3.6364 -1.08416,2.1683 1.71419,5.5585 0,7.2727 -0.8571,0.8571 -2.77927,-0.8571 -3.63637,0 -0.8571,0.8571 0.54208,2.5522 0,3.6364 -1.53322,3.0664 -5.7395,4.2063 -7.27273,7.2727 -0.54207,1.0842 0.54208,2.5522 0,3.6364 -1.53322,3.0664 -5.37099,4.4201 -7.27272,7.2727 -1.50345,2.2552 -2.77927,4.7014 -3.63637,7.2727 -0.3833,1.1499 0.8571,2.7793 0,3.6364 -0.8571,0.8571 -2.77926,-0.8571 -3.63636,0 -0.8571,0.8571 0.54208,2.5522 0,3.6363 -0.76661,1.5333 -2.86975,2.1032 -3.63636,3.6364 -0.54208,1.0842 0.54207,2.5522 0,3.6364 -1.53323,3.0664 -5.73951,4.2063 -7.27273,7.2727 -0.54208,1.0842 0.54208,2.5522 0,3.6364 -1.53323,3.0664 -5.7395,4.2062 -7.27273,7.2727 -0.54208,1.0841 0.8571,2.7793 0,3.6364 -7.52376,7.5237 0.29411,-11.4974 -7.27273,3.6363 -0.54207,1.0842 0.54208,2.5522 0,3.6364 -1.53322,3.0664 -5.37099,4.4201 -7.27272,7.2727 -1.50345,2.2552 -2.13292,5.0176 -3.63637,7.2727 -0.95086,1.4263 -2.68549,2.2101 -3.63636,3.6364 -8.0115,1.8313 -1.92217,7.4807 -3.63636,10.9091 -1.53323,3.0664 -6.18858,4.0203 -7.27273,7.2727 -0.76661,2.2999 1.08415,5.1044 0,7.2727 -0.54208,1.0842 -2.77927,-0.857 -3.63636,0 -0.8571,0.8571 0.54207,2.5523 0,3.6364 -0.76662,1.5332 -2.86976,2.1032 -3.63637,3.6364 -0.72089,1.4418 0.74341,10.1657 0,10.9091 -0.8571,0.8571 -2.77926,-0.8571 -3.63636,0 -1.7142,1.7142 1.7142,5.5585 0,7.2727 -4.84849,4.8485 -3.63637,-6.0606 -3.63637,3.6364 0,1.6376 0.55334,9.8024 0,10.909 -0.76661,1.5333 -2.86975,2.1032 -3.63636,3.6364 -0.54208,1.0842 -0.8571,4.4935 0,3.6364 1.91653,-1.9166 2.42424,-4.8485 3.63636,-7.2728"
       id="path4889"
       inkscape:connector-curvature="0" />
    <path
       style="fill:none;fill-rule:evenodd;stroke:#000000;stroke-width:1px;stroke-linecap:butt;stroke-linejoin:miter;stroke-opacity:1"
       d="m 2055.9257,140.57403 c -20.3464,-26.23164 -22.5782,-36.88207 -52.6359,-45.079609 -8.5134,-2.321847 -63.8198,-22.810172 -72.3807,-24.950397 -5.9961,-1.499023 -12.239,-1.938414 -18.1818,-3.636364 -1.6049,-0.458545 -7.5819,-5.299951 -10.9091,-3.636363 -1.5332,0.766612 -2.1032,2.869751 -3.6364,3.636363 -1.0841,0.542077 -2.7792,-0.857099 -3.6363,0 -7.5238,7.523766 11.4973,-0.29411 -3.6364,7.272728 -1.0842,0.542077 -2.7793,-0.8571 -3.6364,0 -7.5237,7.523765 11.4973,-0.29411 -3.6363,7.272727 -5.0159,2.507922 -3.2527,-4.403836 -7.2728,3.636363 -0.542,1.084155 0.5421,2.55221 0,3.636364 -1.5332,3.066451 -5.371,4.420129 -7.2727,7.272727 -1.5034,2.255177 -1.7198,5.356191 -3.6364,7.272731 -0.8571,0.8571 -2.7792,-0.8571 -3.6363,0 -0.8571,0.8571 0.8571,2.77926 0,3.63636 -0.8571,0.8571 -2.7793,-0.8571 -3.6364,0 -0.8571,0.8571 0.8571,2.77926 0,3.63636 -0.8571,0.8571 -2.7792,-0.8571 -3.6363,0 -1.7142,1.7142 1.7142,5.55853 0,7.27273 -0.8571,0.8571 -2.7793,-0.8571 -3.6364,0 -0.8571,0.8571 0.5421,2.55221 0,3.63636 -0.7666,1.53323 -2.8698,2.10314 -3.6364,3.63637 -0.5421,1.08415 0.5421,2.55221 0,3.63636 -0.7666,1.53323 -2.8697,2.10314 -3.6363,3.63637 -0.5421,1.08415 0.8571,2.77926 0,3.63636 -7.5238,7.52377 0.2941,-11.49731 -7.2728,3.63636 -1.0841,2.16831 1.7142,5.55853 0,7.27273 -0.8571,0.8571 -3.0943,-1.08415 -3.6363,0 -1.1159,2.2318 1.1271,15.92763 0,18.18182 -0.7666,1.53322 -2.8698,2.10314 -3.6364,3.63636 -1.1428,2.28554 1.1428,12.25992 0,14.54546 -0.7666,1.53322 -3.0943,2.01013 -3.6364,3.63636 -0.7666,2.29984 0,4.84849 0,7.27273 0,1.21212 0.6724,2.62782 0,3.63636 -1.9017,2.8526 -5.7395,4.20628 -7.2727,7.27273 -1.0841,2.16831 1.0842,5.10442 0,7.27273 -0.5421,1.08415 -3.0943,-1.08416 -3.6363,0 -2.2351,4.47008 -2.056,9.80421 -3.6364,14.54545 -0.8571,2.5713 -2.4243,4.84848 -3.6364,7.27273 -3.6363,7.27272 -7.8892,14.26859 -10.9091,21.81818 -1.4235,3.55891 -2.2128,7.35018 -3.6363,10.90909 -1.0066,2.51653 -2.6298,4.7562 -3.6364,7.27273 -1.4236,3.55891 -1.9222,7.48069 -3.6364,10.90909 -0.7666,1.53322 -2.4242,2.42424 -3.6363,3.63636 -1.2121,3.63637 -1.9222,7.4807 -3.6364,10.90909 -0.7666,1.53323 -3.0943,2.01014 -3.6363,3.63637 -0.7667,2.29983 0.5879,4.92086 0,7.27272 -2.6366,10.5463 -2.837,4.25551 -7.2728,10.90909 l -3.6363,7.27273 c 0,1.21212 0.542,2.55221 0,3.63637 -0.7667,1.53322 -2.8698,2.10313 -3.6364,3.63636 -1.0842,2.16831 1.0842,5.10442 0,7.27273 -0.7666,1.53322 -2.8698,2.10313 -3.6364,3.63636 -1.0841,2.16831 1.0842,5.10442 0,7.27273 -0.7666,1.53322 -2.8697,2.10314 -3.6363,3.63636 -0.5421,1.08416 0.542,2.55221 0,3.63636 -8.3211,16.64221 1.5071,-15.4306 -7.2728,10.9091 -3.6082,10.82484 8.6105,-7.46112 -3.6363,10.90909 -0.9509,1.4263 -3.0943,2.01013 -3.6364,3.63636 -0.7666,2.29984 0.7666,4.97289 0,7.27273 -1.0789,3.23665 -9.8302,7.67244 -10.9091,10.90909 -1.288,3.86404 1.288,10.68141 0,14.54545 -1.7142,5.1426 -5.5585,9.40286 -7.2727,14.54546 -0.7666,2.29984 1.0842,5.10442 0,7.27272 -1.5332,3.06646 -5.7395,4.20628 -7.2727,7.27273 -1.4546,2.90909 1.4545,8 0,10.90909 -0.7666,1.53323 -2.8698,2.10314 -3.6364,3.63637 -1.4545,2.90909 1.4546,8 0,10.90909 -0.7666,1.53322 -2.8697,2.10314 -3.6364,3.63636 -1.4545,2.90909 1.4546,8 0,10.90909 -0.7666,1.53323 -2.8697,2.10314 -3.6363,3.63637 -0.8091,1.61809 0.5544,12.88222 0,14.54545 -0.5421,1.62623 -3.0943,2.01013 -3.6364,3.63636 -0.7666,2.29984 0,4.84849 0,7.27273 -1.2121,2.42424 -2.7792,4.70143 -3.6363,7.27273 -0.4717,1.41499 0.5643,10.34477 0,10.90909 -0.8571,0.8571 -2.7793,-0.8571 -3.6364,0 -0.995,0.99499 0.9863,12.57277 0,14.54545 -0.7666,1.53323 -2.8698,2.10314 -3.6364,3.63637 -1.0841,2.16831 1.0842,5.10442 0,7.27272 -0.7666,1.53323 -2.8697,2.10314 -3.6363,3.63637 -1.0842,2.16831 0.7666,4.97289 0,7.27273 -0.8571,2.57129 -2.7793,4.70143 -3.6364,7.27272 -0.3833,1.14992 0.8571,2.77927 0,3.63637 -0.8571,0.8571 -2.4242,0 -3.6364,0 -1.2121,2.42424 -2.7792,4.70143 -3.6363,7.27272 -0.3833,1.14992 0.3833,2.48645 0,3.63637 -0.8571,2.57129 -2.7793,4.70143 -3.6364,7.27272 -0.3833,1.14992 0.3833,2.48645 0,3.63637 -1.2121,2.42424 -2.4242,4.84848 -3.6364,7.27273 0,1.21212 0.3834,2.48644 0,3.63636 -0.8571,2.5713 -2.7792,4.70143 -3.6363,7.27273 -0.3833,1.14992 0.3833,2.48644 0,3.63636 -1.7142,5.14259 -5.5585,9.40286 -7.2727,14.54545 -0.3834,1.14992 0.3833,2.48645 0,3.63637 2.1917,6.5816 -5.8907,6.763 -7.2728,10.90909 -0.7666,2.29984 1.0842,5.10442 0,7.27273 -0.5421,1.08415 -3.0943,-1.08416 -3.6363,0 -1.0842,2.1683 0.5879,4.92086 0,7.27272 -4.39,17.5598 -1.7281,-0.18022 -7.2728,10.90909 -0.542,1.08416 0.5421,2.55221 0,3.63637 -0.7666,1.53322 -2.8697,2.10314 -3.6363,3.63636 -1.0842,2.16831 0.7666,4.97289 0,7.27273 -0.8571,2.5713 -2.4243,4.84848 -3.6364,7.27273 -1.2121,2.42424 -2.1329,5.01755 -3.6364,7.27272 -0.9508,1.4263 -2.8697,2.10314 -3.6363,3.63637 -0.5421,1.08415 0.3833,2.48644 0,3.63636 -0.8571,2.5713 -2.7793,4.70143 -3.6364,7.27273 -0.3833,1.14992 0.3833,2.48644 0,3.63636 -0.8571,2.5713 -2.7792,4.70143 -3.6363,7.27273 -0.3834,1.14992 0.3833,2.48644 0,3.63636 -8.7799,26.3397 1.0483,-5.73312 -7.2728,10.90909 -1.0841,2.16831 1.0842,5.10442 0,7.27273 -4.4934,8.98693 -3.6363,-1.25519 -3.6363,7.27273"
       id="path4891"
       inkscape:connector-curvature="0"
       sodipodi:nodetypes="csssscscssccscsssssssccccscscscccsccscsscccscscccccccccccsccssssccsscccccccccsscccssscssscccsscccscccccssccssscsccc" />
    <path
       style="fill:none;fill-rule:evenodd;stroke:#000000;stroke-width:1px;stroke-linecap:butt;stroke-linejoin:miter;stroke-opacity:1"
       d="m 1749.0909,772.36221 c -3.7986,-12.4524 11.0745,-11.23985 14.5455,-18.18182 1.0841,-2.16831 -1.0842,-5.10442 0,-7.27273 0.7666,-1.53323 2.8697,-2.10314 3.6363,-3.63636 0.5421,-1.08416 -0.3833,-2.48645 0,-3.63637 0.8571,-2.5713 2.7793,-4.70143 3.6364,-7.27272 0.7666,-2.29984 -1.0842,-5.10442 0,-7.27273 0.7666,-1.53323 2.8697,-2.10314 3.6364,-3.63637 0.9863,-1.97268 -0.995,-13.55046 0,-14.54545 0.8571,-0.8571 2.7792,0.8571 3.6363,0 0.7434,-0.74341 -0.7209,-9.4673 0,-10.90909 0.7666,-1.53323 2.8698,-2.10314 3.6364,-3.63636 1.4545,-2.9091 -1.4546,-8 0,-10.9091 0.7666,-1.53322 2.8697,-2.10313 3.6363,-3.63636 0.5421,-1.08415 -0.542,-2.55221 0,-3.63636 0.7667,-1.53323 2.8698,-2.10314 3.6364,-3.63637 1.0842,-2.16831 -1.7142,-5.55853 0,-7.27272 0.8571,-0.8571 2.7793,0.8571 3.6364,0 0.5643,-0.56432 -0.4717,-9.4941 0,-10.90909 1.2,-3.6 6.0727,-10.94546 7.2727,-14.54546 0.3833,-1.14992 -0.5421,-2.55221 0,-3.63636 0.7666,-1.53323 2.8697,-2.10314 3.6364,-3.63637 0.542,-1.08415 -0.294,-2.46043 0,-3.63636 0.9296,-3.71862 1.9221,-7.48069 3.6363,-10.90909 0.7666,-1.53323 2.8698,-2.10314 3.6364,-3.63636 0.5421,-1.08416 -0.3833,-2.48645 0,-3.63637 0.8571,-2.5713 2.979,-4.64327 3.6364,-7.27273 0.5879,-2.35186 -0.7667,-4.97288 0,-7.27272 0.542,-1.62623 2.8697,-2.10314 3.6363,-3.63637 0.5421,-1.08415 -0.5421,-2.55221 0,-3.63636 0.7666,-1.53323 2.8698,-2.10314 3.6364,-3.63636 0.7209,-1.44179 -0.7434,-10.16569 0,-10.90909 0.8571,-0.8571 2.7792,0.85709 3.6363,0 1.7142,-1.7142 -1.0841,-5.10442 0,-7.27273 0.7667,-1.53323 2.8698,-2.10314 3.6364,-3.63637 1.1619,-2.32371 -0.9756,-11.61854 0,-14.54545 0.8571,-2.5713 2.7793,-4.70143 3.6364,-7.27273 0.3833,-1.14992 -0.5421,-2.55221 0,-3.63636 0.7666,-1.53323 2.8697,-2.10314 3.6363,-3.63636 1.0842,-2.16831 -0.7666,-4.97289 0,-7.27273 0.8571,-2.5713 2.7793,-4.70143 3.6364,-7.27273 0.3833,-1.14992 -0.5421,-2.55221 0,-3.63636 0.7666,-1.53323 2.8697,-2.10314 3.6364,-3.63637 1.0841,-2.1683 -1.0842,-5.10442 0,-7.27272 0.7666,-1.53323 2.8697,-2.10314 3.6363,-3.63637 0.4701,-0.94018 0,-19.24072 0,-21.81818 0,-1.63766 -0.5533,-9.80242 0,-10.90909 0.7666,-1.53323 2.8698,-2.10314 3.6364,-3.63636 0.4781,-0.95615 0,-12.64393 0,-14.54546 0,-9.69697 0,-19.39394 0,-29.09091 0,-1.63766 -0.5533,-9.80242 0,-10.90909 0.7666,-1.53322 3.0943,-2.01013 3.6364,-3.63636 0.6703,-2.01098 0,-18.15617 0,-21.81818 0,-1.21212 0,-2.42425 0,-3.63637 0,-1.21212 -1.2122,-3.63636 0,-3.63636 1.2121,0 -0.8571,4.49346 0,3.63636 5.4556,-5.4556 3.6363,-14.92073 3.6363,-21.81818 0,-1.21212 -0.3833,-2.48644 0,-3.63636 10.3013,-20.6025 -1.3552,5.42077 3.6364,-14.54546 0.6573,-2.62946 2.979,-4.64326 3.6363,-7.27272 0.882,-3.5278 -1.1499,-7.45934 0,-10.9091 0.8571,-2.57129 2.979,-4.64326 3.6364,-7.27272 0.588,-2.35186 0,-4.84849 0,-7.27273 0,-7.27273 0,-14.54545 0,-21.81818 0,-1.63767 -0.5533,-9.80242 0,-10.90909 0.7666,-1.53323 2.8698,-2.10314 3.6364,-3.63637 0.7209,-1.44178 -0.7434,-10.16568 0,-10.90909 0.8571,-0.8571 2.7792,0.8571 3.6363,0 0.8571,-0.8571 -0.8571,-2.77926 0,-3.63636 0.8571,-0.8571 2.7793,0.8571 3.6364,0 0.8571,-0.8571 -0.8571,-2.77927 0,-3.63636 0.8571,-0.8571 2.7793,0.85709 3.6364,0 0.7434,-0.74341 -0.7209,-9.46731 0,-10.9091 0.7666,-1.53322 2.8697,-2.10313 3.6363,-3.63636 0.5421,-1.08415 -0.8571,-2.77926 0,-3.63636 0.8571,-0.8571 2.7793,0.8571 3.6364,0 0.8571,-0.8571 -0.5421,-2.55221 0,-3.63637 2.7847,-5.56937 6.48,-2.84369 10.9091,-7.27272 0.8571,-0.8571 -0.8571,-2.77927 0,-3.63637 0.8571,-0.8571 2.7792,0.8571 3.6363,0 0.8571,-0.8571 -0.542,-2.55221 0,-3.63636 0.7667,-1.53323 2.8698,-2.10314 3.6364,-3.63636 0.5421,-1.08416 -0.8571,-2.77927 0,-3.63637 0.8571,-0.8571 2.7793,0.8571 3.6364,0 0.019,-0.0193 -0.03,-10.78753 0,-10.90909 0.6573,-2.62946 2.7792,-4.70143 3.6363,-7.27273 0.7666,-2.29983 -1.7142,-5.55853 0,-7.27272 1.7142,-1.7142 5.1045,1.08415 7.2728,0 1.5332,-0.76662 2.1031,-2.86975 3.6363,-3.63637 1.0842,-0.54207 2.5522,0.54208 3.6364,0 15.1337,-7.56683 -3.8874,0.25104 3.6364,-7.27272 0.8571,-0.8571 2.7792,0.85709 3.6363,0 0.8571,-0.8571 -0.8571,-2.77927 0,-3.63637 0.8571,-0.8571 2.5522,0.54208 3.6364,0 3.0664,-1.53322 4.2063,-5.7395 7.2727,-7.27273 1.0407,-0.52036 16.2392,0 18.1818,0 16.9697,0 33.9394,0 50.9091,0 4.8485,0 9.697,0 14.5455,0 1.2121,0 2.4864,-0.3833 3.6363,0 12.5354,4.17845 2.6937,3.63637 10.9091,3.63637"
       id="path4893"
       inkscape:connector-curvature="0" />
    <ellipse
       style="opacity:0.98000004;fill:#000000;fill-opacity:1;stroke:#e9c6af;stroke-width:4.80000019;stroke-linecap:round;stroke-linejoin:bevel;stroke-miterlimit:4;stroke-dasharray:none"
       id="path4899"
       cx="1976.3636"
       cy="183.2713"
       rx="12.727273"
       ry="10.909091" />
    <ellipse
       style="opacity:0.98000004;fill:#aa4400;fill-opacity:1;stroke:#000000;stroke-width:4.80000019;stroke-linecap:round;stroke-linejoin:bevel;stroke-miterlimit:4;stroke-dasharray:none"
       id="path4911"
       cx="2147.1941"
       cy="224.72586"
       rx="2.7320035"
       ry="2.8927095" />
    <ellipse
       style="opacity:0.98000004;fill:#aa4400;fill-opacity:1;stroke:#000000;stroke-width:4.80000019;stroke-linecap:round;stroke-linejoin:bevel;stroke-miterlimit:4;stroke-dasharray:none"
       id="path4913"
       cx="2134.3374"
       cy="265.5452"
       rx="2.7320035"
       ry="1.6070609" />
    <path
       style="fill:#ff0000;fill-rule:evenodd;stroke:#000000;stroke-width:1px;stroke-linecap:butt;stroke-linejoin:miter;stroke-opacity:1"
       d="m 1977.2727,301.90766 c -0.7575,-0.75758 -1.5151,-1.51515 -2.2727,-2.27273 -0.1515,-0.15151 -0.3587,-0.26289 -0.4545,-0.45454 -0.068,-0.13552 0.068,-0.31903 0,-0.45455 -0.1214,-0.24276 -1.1244,-1.12433 -1.3637,-1.36364 -0.2393,-0.2393 -1.2422,-1.12087 -1.3636,-1.36363 -0.068,-0.13552 0.068,-0.31903 0,-0.45455 -0.2727,-0.54545 -1.0909,-0.81818 -1.3637,-1.36363 -0.068,-0.13552 0.1072,-0.34741 0,-0.45455 -0.1071,-0.10714 -0.3284,0.084 -0.4545,0 -1.966,-1.96604 0.1204,-0.0712 -1.8182,-1.36364 -0.1783,-0.11885 -0.2629,-0.35871 -0.4545,-0.45454 -0.1355,-0.0678 -0.3191,0.0678 -0.4546,0 -0.1916,-0.0958 -0.2629,-0.35872 -0.4545,-0.45455 -0.1355,-0.0678 -0.319,0.0678 -0.4546,0 -0.1916,-0.0958 -0.2762,-0.33568 -0.4545,-0.45454 -0.2819,-0.18793 -0.6272,-0.26662 -0.9091,-0.45455 -0.1783,-0.11886 -0.2763,-0.33568 -0.4545,-0.45454 -0.2819,-0.18793 -0.6272,-0.26662 -0.9091,-0.45455 -0.1783,-0.11886 -0.2629,-0.35872 -0.4546,-0.45454 -0.1355,-0.0678 -0.3474,0.10713 -0.4545,0 -0.2396,-0.23957 -0.215,-0.66953 -0.4546,-0.90909 -0.2142,-0.21428 -0.6569,0.16809 -0.9091,0 -2.6355,-1.757 -0.3366,-0.21864 -0.9091,-1.36364 -0.096,-0.19165 -0.303,-0.30303 -0.4545,-0.45455 -0.303,-0.30303 -0.6061,-0.60606 -0.9091,-0.90909 -0.1515,-0.15151 -0.303,-0.30303 -0.4545,-0.45454 -0.4546,-0.45455 -0.9091,-0.90909 -1.3637,-1.36364 -0.3571,-0.35717 -1.9832,-2.12796 -2.2727,-2.27273 -0.627,-0.31349 -0.4066,0.55048 -0.9091,-0.45454 -0.068,-0.13552 0.084,-0.32848 0,-0.45455 -0.2241,-0.33617 -1.6312,-1.44426 -1.8182,-1.81818 -0.068,-0.13552 0,-0.30303 0,-0.45454 -0.1515,-0.30304 -0.2666,-0.6272 -0.4545,-0.9091 -0.6934,-1.04013 -0.3598,0.28423 -0.9091,-1.36363 -0.048,-0.14374 0.084,-0.32848 0,-0.45455 -0.2377,-0.35657 -0.6714,-0.55251 -0.9091,-0.90909 -0.084,-0.12607 0.068,-0.31902 0,-0.45454 -0.096,-0.19166 -0.3587,-0.2629 -0.4545,-0.45455 -0.068,-0.13552 0.068,-0.31903 0,-0.45454 -0.2444,-0.48863 -0.6281,-0.8952 -0.9091,-1.36364 -0.3487,-0.58104 -0.5333,-1.25439 -0.9091,-1.81818 -0.1189,-0.17829 -0.3587,-0.2629 -0.4546,-0.45455 -0.068,-0.13552 0.068,-0.31902 0,-0.45454 -2.1437,-4.28744 -0.085,0.0995 -1.3636,-1.81819 -0.1879,-0.28189 -0.2666,-0.62719 -0.4546,-0.90909 -0.1188,-0.17828 -0.3356,-0.27625 -0.4545,-0.45454 -0.1879,-0.2819 -0.303,-0.60606 -0.4545,-0.90909 -0.1516,-0.30303 -0.3475,-0.58768 -0.4546,-0.90909 -0.048,-0.14374 0.068,-0.31903 0,-0.45455 -0.096,-0.19165 -0.3587,-0.26289 -0.4545,-0.45454 -0.1356,-0.27104 0.1355,-0.63806 0,-0.9091 -0.096,-0.19165 -0.3868,-0.25126 -0.4546,-0.45454 -0.096,-0.28748 0.073,-0.61511 0,-0.90909 -0.082,-0.32868 -0.3474,-0.58768 -0.4545,-0.90909 -0.048,-0.14374 0.048,-0.31081 0,-0.45455 -0.1072,-0.32141 -0.3474,-0.58768 -0.4546,-0.90909 -0.048,-0.14374 0.048,-0.3108 0,-0.45454 -0.1071,-0.32142 -0.3474,-0.58768 -0.4545,-0.9091 -0.096,-0.28748 0.1355,-0.63805 0,-0.90909 -0.096,-0.19165 -0.3587,-0.26289 -0.4546,-0.45454 -0.1506,-0.30124 0.127,-1.43722 0,-1.81818 -0.1071,-0.32142 -0.2666,-0.6272 -0.4545,-0.90909 -0.1189,-0.17829 -0.3868,-0.25127 -0.4546,-0.45455 -0.096,-0.28748 0,-0.60606 0,-0.90909 0,-0.15152 0,-0.30303 0,-0.45455 0,-0.15151 0.068,-0.31902 0,-0.45454 -0.096,-0.19166 -0.3587,-0.26289 -0.4545,-0.45455 -0.1456,-0.29126 0.1411,-2.44498 0,-2.72727 -0.096,-0.19165 -0.3587,-0.26289 -0.4545,-0.45455 -0.068,-0.13551 0,-0.30303 0,-0.45454 0,-0.15152 0,-0.30303 0,-0.45455 0,-0.15151 -0.1516,-0.45454 0,-0.45454 0.8755,0 0,0.91091 0.909,1.36363 0.1356,0.0678 0.3191,-0.0678 0.4546,0 1.005,0.50252 0.141,0.28211 0.4545,0.9091 0.1917,0.3833 0.7175,0.52578 0.9091,0.90909 0.068,0.13552 0,0.30303 0,0.45454 0.1515,0.15152 0.3587,0.26289 0.4546,0.45455 0.068,0.13552 -0.1072,0.34741 0,0.45454 0.1071,0.10714 0.3474,-0.10713 0.4545,0 0.1072,0.10714 -0.068,0.31903 0,0.45455 0.096,0.19165 0.303,0.30303 0.4546,0.45454 0.1515,0.15152 0.2629,0.35872 0.4545,0.45455 0.1355,0.0678 0.3474,-0.10714 0.4546,0 0.2395,0.23957 0.2666,0.62719 0.4545,0.90909 0.1189,0.17829 0.303,0.30303 0.4545,0.45455 0.4546,0.45454 0.9091,0.90909 1.3637,1.36363 0.303,0.30303 0.6714,0.55252 0.9091,0.90909 0.1879,0.2819 0.2666,0.6272 0.4545,0.90909 0.1189,0.17829 0.303,0.30303 0.4546,0.45455 0.4545,0.45454 0.9091,0.90909 1.3636,1.36364 0.1515,0.15151 0.303,0.30303 0.4545,0.45454 0.1516,0.15152 0.2629,0.35872 0.4546,0.45455 0.1355,0.0678 0.3474,-0.10714 0.4545,0 0.2396,0.23956 0.215,0.66952 0.4546,0.90909 0.1071,0.10713 0.3474,-0.10714 0.4545,0 0.1072,0.10713 -0.068,0.31902 0,0.45454 0.096,0.19166 0.3587,0.26289 0.4546,0.45455 0.068,0.13552 -0.068,0.31902 0,0.45454 0.096,0.19166 0.3587,0.2629 0.4545,0.45455 0.068,0.13552 -0.1071,0.34741 0,0.45454 0.2396,0.23957 0.6695,0.21498 0.9091,0.45455 0.1071,0.10714 -0.048,0.31081 0,0.45455 0.1071,0.32141 0.2666,0.62719 0.4546,0.90909 0.2377,0.35657 0.6713,0.55251 0.909,0.90909 0.188,0.28189 0.2667,0.62719 0.4546,0.90909 0.1189,0.17829 0.3357,0.27626 0.4545,0.45454 0.188,0.2819 0.2667,0.6272 0.4546,0.90909 0.1188,0.17829 0.3357,0.27626 0.4545,0.45455 0.3759,0.56379 0.5333,1.25439 0.9091,1.81818 0.2759,0.41378 1.1622,0.96076 1.3637,1.36364 0.068,0.13552 -0.068,0.31902 0,0.45454 0.096,0.19166 0.3259,0.28313 0.4545,0.45455 0.3278,0.43704 0.5228,0.97735 0.9091,1.36364 0.1071,0.10713 0.3285,-0.084 0.4545,0 0.3031,0.30303 0.6061,0.60606 0.9091,0.90909 0,0.15151 -0.091,0.33333 0,0.45454 0.3857,0.51426 0.8617,0.96207 1.3637,1.36364 0.2645,0.21164 0.6185,0.28023 0.9091,0.45454 0.4684,0.28107 0.9266,0.58132 1.3636,0.90909 0.1515,0.15152 0.303,0.30303 0.4545,0.45455 0,0.15151 -0.1071,0.34741 0,0.45455 0.2396,0.23956 0.6272,0.26661 0.9091,0.45454 0.1783,0.11886 0.2832,0.32598 0.4546,0.45455 0.437,0.32777 0.9773,0.5228 1.3636,0.90909 0.1071,0.10713 -0.1071,0.34741 0,0.45454 0.5536,0.55363 1.0156,0.21292 1.3636,0.90909 0.068,0.13552 -0.1071,0.34741 0,0.45455 0.2396,0.23957 0.6272,0.26661 0.9091,0.45454 0.1783,0.11886 0.3031,0.30303 0.4546,0.45455 0.606,0.60606 1.2121,1.21212 1.8182,1.81818 0.1515,0.15152 0.2762,0.33569 0.4545,0.45455 0.2819,0.18793 0.6272,0.26661 0.9091,0.45454 0.594,0.39603 1.2189,1.36871 1.8182,1.81818 0.437,0.32778 0.9773,0.52281 1.3636,0.9091 0.4792,0.47913 0.43,1.33904 0.9091,1.81818 0.1071,0.10713 0.319,-0.0678 0.4546,0 1.005,0.50251 0.141,0.28211 0.4545,0.90909 0.9459,1.89171 -0.031,-0.48593 0.9091,0.45454 0.1071,0.10714 -0.068,0.31903 0,0.45455 0.096,0.19165 0.3587,0.26289 0.4545,0.45454 0.1356,0.27104 -0.1355,0.63806 0,0.9091 0.096,0.19165 0.3868,0.25126 0.4546,0.45454 0.096,0.28748 -0.1355,0.63805 0,0.90909 0.068,0.13552 0.3474,-0.10714 0.4545,0 0.1072,0.10714 -0.068,0.31903 0,0.45455 0.096,0.19165 0.3587,0.26289 0.4546,0.45454 0.1355,0.27104 -0.1355,0.63805 0,0.90909 0.096,0.19166 0.3587,0.2629 0.4545,0.45455 0.068,0.13552 -0.068,0.31903 0,0.45454 0.4838,0.96756 0.4253,-0.0585 0.9091,0.9091 0.069,0.13833 0,1.15892 0,1.36363 0,0.15152 -0.1071,0.34741 0,0.45455 0.4484,0.4484 0.9091,-0.9314 0.9091,0.45454 0,0.15152 0.1071,0.34741 0,0.45455 -0.1094,0.10938 -1.7088,-0.10938 -1.8182,0 -0.1071,0.10714 0.1072,0.34741 0,0.45454 -0.1071,0.10714 -0.303,0 -0.4545,0 -0.3162,0 -2.1084,-0.0822 -2.2728,0 -0.1916,0.0958 -0.2628,0.35872 -0.4545,0.45455 -0.1355,0.0678 -0.303,0 -0.4545,0 -0.1516,0 -0.3031,0 -0.4546,0 -0.6061,0 -1.2121,0 -1.8182,0 z"
       id="path4923"
       inkscape:connector-curvature="0" />
  </g>
</svg>
