<?xml version="1.0" encoding="UTF-8" standalone="no"?>
<!-- Created with Inkscape (http://www.inkscape.org/) -->
<svg
   xmlns:dc="http://purl.org/dc/elements/1.1/"
   xmlns:cc="http://creativecommons.org/ns#"
   xmlns:rdf="http://www.w3.org/1999/02/22-rdf-syntax-ns#"
   xmlns:svg="http://www.w3.org/2000/svg"
   xmlns="http://www.w3.org/2000/svg"
   xmlns:xlink="http://www.w3.org/1999/xlink"
   xmlns:sodipodi="http://sodipodi.sourceforge.net/DTD/sodipodi-0.dtd"
   xmlns:inkscape="http://www.inkscape.org/namespaces/inkscape"
   width="256"
   height="256"
   id="svg2"
   sodipodi:version="0.32"
   inkscape:version="0.46"
   version="1.0"
   sodipodi:docname="skin.svg"
   inkscape:output_extension="org.inkscape.output.svg.inkscape">
  <defs
     id="defs4">
    <linearGradient
       id="linearGradient3159">
      <stop
         style="stop-color:#966900;stop-opacity:1;"
         offset="0"
         id="stop3161" />
      <stop
         style="stop-color:#673100;stop-opacity:1;"
         offset="1"
         id="stop3163" />
    </linearGradient>
    <inkscape:perspective
       sodipodi:type="inkscape:persp3d"
       inkscape:vp_x="0 : 526.18109 : 1"
       inkscape:vp_y="0 : 1000 : 0"
       inkscape:vp_z="744.09448 : 526.18109 : 1"
       inkscape:persp3d-origin="372.04724 : 350.78739 : 1"
       id="perspective10" />
    <linearGradient
       inkscape:collect="always"
       xlink:href="#linearGradient3159"
       id="linearGradient3165"
       x1="209.63681"
       y1="76.692946"
       x2="244.49329"
       y2="76.692946"
       gradientUnits="userSpaceOnUse" />
    <linearGradient
       inkscape:collect="always"
       xlink:href="#linearGradient3159"
       id="linearGradient3173"
       x1="22.25403"
       y1="72.578178"
       x2="197.97308"
       y2="72.578178"
       gradientUnits="userSpaceOnUse" />
    <linearGradient
       inkscape:collect="always"
       xlink:href="#linearGradient3159"
       id="linearGradient3189"
       x1="29.752861"
       y1="189.7534"
       x2="218.21429"
       y2="189.7534"
       gradientUnits="userSpaceOnUse" />
  </defs>
  <sodipodi:namedview
     id="base"
     pagecolor="#ffffff"
     bordercolor="#666666"
     borderopacity="1.0"
     gridtolerance="10000"
     guidetolerance="10"
     objecttolerance="10"
     inkscape:pageopacity="0.0"
     inkscape:pageshadow="2"
     inkscape:zoom="2.8"
     inkscape:cx="109.78834"
     inkscape:cy="116.38949"
     inkscape:document-units="px"
     inkscape:current-layer="layer1"
     showgrid="false"
     inkscape:window-width="1600"
     inkscape:window-height="1126"
     inkscape:window-x="1675"
     inkscape:window-y="-3" />
  <metadata
     id="metadata7">
    <rdf:RDF>
      <cc:Work
         rdf:about="">
        <dc:format>image/svg+xml</dc:format>
        <dc:type
           rdf:resource="http://purl.org/dc/dcmitype/StillImage" />
      </cc:Work>
    </rdf:RDF>
  </metadata>
  <g
     inkscape:label="Layer 1"
     inkscape:groupmode="layer"
     id="layer1">
    <rect
       style="fill:#edeae4;fill-opacity:1;stroke:none;stroke-width:1;stroke-miterlimit:4;stroke-dasharray:none;stroke-opacity:1"
       id="rect3191"
       width="256"
       height="256"
       x="0"
       y="-2.220446e-14" />
    <path
       style="fill:url(#linearGradient3173);fill-rule:evenodd;stroke:none;stroke-width:1px;stroke-linecap:butt;stroke-linejoin:miter;stroke-opacity:1;fill-opacity:1"
       d="M 55.357143,21 C 52.241132,21.719423 51.517042,28.446917 47.857143,30.642857 C 43.016817,33.547053 38.911264,37.854946 37.5,43.5 C 35.259655,52.46138 33.214286,61.896656 33.214286,71.357143 C 33.214286,79.688428 27.371195,90.072012 24.285714,97.785714 C 21.987474,103.53132 22.315809,110.27448 25,115.64286 C 27.345334,120.33352 33.387766,121.71225 37.857143,123.5 C 41.786515,125.07175 47.630344,123.54536 51.428572,122.78571 C 56.626111,121.74621 63.776914,120.09099 68.214286,117.42857 C 71.921352,115.20433 75.857742,115.64286 80,115.64286 C 87.700074,115.64286 95.231766,114.57143 102.85714,114.57143 C 107.56695,114.57143 112.00187,112.47557 116.42857,111 C 124.02155,108.46901 130.68496,102.08609 137.85714,98.5 C 148.89301,92.982068 160.55503,86.843385 172.5,83.857143 C 178.19573,82.433211 183.98115,78.254167 188.92857,75.285714 C 197.20949,70.317161 198.90076,60.009799 196.42857,51.357143 C 192.62544,38.046166 191.34518,39.488033 182.14286,30.285714 C 173.84805,21.990903 153.48451,21 142.85714,21 C 126.40293,21 110.99237,20.527361 94.642857,23.5 C 87.010816,24.887644 81.427801,20.285714 73.571429,20.285714 C 69.714139,18.849397 59.066304,22.178187 55.357143,21 z"
       id="path2383"
       sodipodi:nodetypes="csssssssssssssssssscc" />
    <path
       style="fill:url(#linearGradient3189);fill-rule:evenodd;stroke:none;stroke-width:1px;stroke-linecap:butt;stroke-linejoin:miter;stroke-opacity:1;fill-opacity:1.0"
       d="M 211.07143,139.92857 C 204.74552,143.09152 192.75062,149.47118 183.57143,153.14286 C 176.0283,156.16011 165.74449,154.10361 157.85714,156.35714 C 148.81913,158.93943 138.95977,162.75451 132.14286,169.57143 C 126.79089,174.9234 118.96538,177.83506 112.5,181.71429 C 104.18589,186.70275 87.067084,192.42857 77.142857,192.42857 C 70.087924,192.42857 61.701813,194.97052 55.357143,198.14286 C 51.213939,200.21446 47.347941,202.73444 42.857143,203.85714 C 40.471078,204.45366 37.985858,207.00707 35.714286,208.14286 C 33.071724,209.46414 31.898266,212.56061 30.714286,214.92857 C 29.019279,218.31858 29.760001,220.87715 31.428571,224.21429 C 32.776965,226.91107 34.027746,228.90673 36.785714,230.28571 C 39.800116,231.79292 42.613619,233.37824 45.714286,234.92857 C 49.884778,237.01382 54.995081,237.78571 59.642857,237.78571 C 74.406053,237.78571 89.540068,239.26028 104.28571,237.78571 C 114.43671,236.77062 125.64123,236 135.71429,236 C 138.65615,236 140.75888,237.37498 143.57143,238.5 C 146.59076,239.70773 151.5553,239.8318 154.64286,239.21429 C 157.01092,238.74067 161.47401,235.55199 162.5,233.5 C 164.34723,229.80554 163.57143,225.07121 163.57143,221 C 163.57143,215.55837 161.75266,210.09387 162.85714,204.57143 C 163.79131,199.90061 164.5598,196.16612 166.78571,191.71429 C 170.91728,183.45115 180.6639,179.77519 188.21429,176 C 196.04499,172.08465 206.26125,170.09589 212.5,163.85714 C 215.16499,161.19216 218.21429,158.30635 218.21429,154.21429 C 218.21429,151.57747 217.29443,150.30749 216.42857,148.14286 C 215.62102,146.12399 214.44726,144.86048 213.92857,142.78571 C 213.45766,140.90208 213.04345,140.71738 211.07143,139.92857 z"
       id="path2385" />
    <path
       style="fill:url(#linearGradient3165);fill-rule:evenodd;stroke:none;stroke-width:1px;stroke-linecap:butt;stroke-linejoin:miter;stroke-opacity:1;fill-opacity:1"
       d="M 227.5,52.785714 C 227.38204,52.313889 221.32428,55.747146 220.35714,56.714285 C 217.93099,59.140442 216.21582,61.425508 214.64286,64.571428 C 212.725,68.407152 211.63722,71.80264 210.35714,75.642857 C 208.8188,80.257895 210.13523,86.724684 210.71429,91.357143 C 211.09842,94.430232 215.19649,98.507168 217.85714,99.571428 C 220.9989,100.82813 224.37552,100.98204 227.85714,100.28571 C 231.49007,99.559129 234.76959,97.175109 236.42857,93.857143 C 238.47581,89.762663 241.44582,86.849731 243.21429,82.428571 C 245.19289,77.482066 244.28571,72.179047 244.28571,67.071428 C 244.28571,64.382833 242.21216,61.49575 241.07143,59.214285 C 240.07286,57.217157 238.08976,55.076011 236.07143,54.571428 C 234.46201,54.169073 232.88151,53.238234 231.07143,52.785714 C 230.19559,52.566755 228.23903,52.785714 227.5,52.785714 z"
       id="path2387" />
  </g>
</svg>
