# Blender3D v248 OBJ File: 
# www.blender3d.org
mtllib plant.mtl
o Plane
v 1.000000 0.000000 0.013278
v 1.000000 1.000000 0.013278
v 0.000000 1.000000 0.033278
v 0.000000 -0.000000 0.033278
v 0.800000 0.000000 0.033278
v 0.800000 1.000000 0.033278
v 0.551918 0.000000 0.010073
v 0.551918 1.000000 0.010073
v 0.400000 0.000000 0.033278
v 0.400000 1.000000 0.033278
v 0.230452 0.000000 0.002059
v 0.230452 1.000000 0.002059
vt 0.011960 -0.000609
vt 0.011960 0.995890
vt 0.241605 0.995889
vt 0.241605 -0.000610
vt 0.410559 0.995889
vt 0.410559 -0.000610
vt 0.561946 0.995889
vt 0.561946 -0.000610
vt 0.809159 0.995889
vt 0.809159 -0.000610
vt 1.008459 0.995889
vt 1.008459 -0.000610
vn 0.134220 0.000000 0.990936
vn -0.023713 0.000000 0.999695
vn -0.015229 0.000000 0.999878
vn 0.029145 0.000000 0.999573
vn 0.003174 0.000000 0.999969
vn 0.099490 0.000000 0.995025
usemtl Material.001_plant.png
s 1
f 3/1/1 4/2/1 11/3/2 12/4/2
f 9/5/3 10/6/3 12/4/2 11/3/2
f 7/7/4 8/8/4 10/6/3 9/5/3
f 5/9/5 6/10/5 8/8/4 7/7/4
f 1/11/6 2/12/6 6/10/5 5/9/5
