# Blender3D v248 OBJ File: tractor.blend
# www.blender3d.org
mtllib tractor.mtl
o Cylinder_Cylinder.004
v 0.345012 0.352361 0.530629
v 0.346338 0.343988 0.530629
v 0.338785 0.340140 0.530629
v 0.332791 0.346134 0.530629
v 0.336639 0.353687 0.530629
v 0.354006 0.361356 0.297415
v 0.357672 0.338213 0.297415
v 0.336795 0.327576 0.297415
v 0.320227 0.344144 0.297415
v 0.330864 0.365021 0.297415
v 0.339913 0.347262 0.530629
v 0.339913 0.347262 0.297415
vn 0.000000 0.000000 -1.000000
vn 0.000000 0.000000 1.000000
vn -0.986728 -0.156283 -0.044084
vn -0.453550 0.890140 -0.044084
vn 0.706419 0.706419 -0.044084
vn 0.890140 -0.453550 -0.044084
vn -0.156283 -0.986728 -0.044084
usemtl Material.006
s off
f 11//1 1//1 2//1
f 12//2 7//2 6//2
f 11//1 2//1 3//1
f 12//2 8//2 7//2
f 11//1 3//1 4//1
f 12//2 9//2 8//2
f 11//1 4//1 5//1
f 12//2 10//2 9//2
f 5//1 1//1 11//1
f 12//2 6//2 10//2
f 1//3 6//3 7//3 2//3
f 2//4 7//4 8//4 3//4
f 3//5 8//5 9//5 4//5
f 4//6 9//6 10//6 5//6
f 6//7 1//7 5//7 10//7
o Cube.024_Cube.004
v 0.318575 0.345542 0.311893
v 0.353724 0.051578 0.337103
v 0.142627 0.051578 0.337103
v 0.177777 0.345542 0.311893
v 0.304196 0.304302 0.491222
v 0.332166 0.073136 0.529711
v 0.164185 0.073136 0.529711
v 0.192156 0.304302 0.491222
vn -0.000000 -0.085448 -0.996343
vn 0.000000 0.164239 0.986421
vn 0.986109 0.130926 0.102208
vn -0.000000 -0.993794 0.111234
vn -0.986109 0.130927 0.102208
vn 0.000000 0.974562 0.224119
usemtl Material.008
s off
f 13//8 14//8 15//8 16//8
f 17//9 20//9 19//9 18//9
f 13//10 17//10 18//10 14//10
f 14//11 18//11 19//11 15//11
f 15//12 19//12 20//12 16//12
f 17//13 13//13 16//13 20//13
o tire_FL_Cylinder.003
v 0.125039 0.536959 0.135362
v 0.125039 0.579890 0.157784
v 0.125039 0.627480 0.150058
v 0.125039 0.661550 0.115136
v 0.125039 0.669087 0.066356
v 0.125039 0.647213 0.022351
v 0.125039 0.604282 -0.000071
v 0.125039 0.556692 0.007655
v 0.125039 0.522622 0.042578
v 0.125039 0.515084 0.091357
v 0.163464 0.536959 0.135362
v 0.163464 0.579890 0.157784
v 0.163464 0.627480 0.150058
v 0.163464 0.661550 0.115135
v 0.163464 0.669087 0.066355
v 0.163464 0.647213 0.022351
v 0.163464 0.604281 -0.000071
v 0.163464 0.556692 0.007655
v 0.163464 0.522622 0.042578
v 0.163464 0.515084 0.091358
v 0.125039 0.592086 0.078857
v 0.163464 0.592086 0.078857
vn -1.000000 0.000000 0.000000
vn 1.000000 -0.000000 -0.000000
vn -0.000000 -0.462934 0.886393
vn -0.000000 0.160248 0.987077
vn 0.000000 0.715786 0.698319
vn -0.000000 0.988272 0.152706
vn -0.000000 0.895465 -0.445131
vn 0.000000 0.462934 -0.886393
vn -0.000000 -0.160249 -0.987077
vn -0.000000 -0.715787 -0.698319
vn -0.000001 -0.988272 -0.152706
vn -0.000001 -0.895466 0.445130
usemtl Material.004
s off
f 41//14 21//14 22//14
f 42//15 32//15 31//15
f 41//14 22//14 23//14
f 42//15 33//15 32//15
f 41//14 23//14 24//14
f 42//15 34//15 33//15
f 41//14 24//14 25//14
f 42//15 35//15 34//15
f 41//14 25//14 26//14
f 42//15 36//15 35//15
f 41//14 26//14 27//14
f 42//15 37//15 36//15
f 41//14 27//14 28//14
f 42//15 38//15 37//15
f 41//14 28//14 29//14
f 42//15 39//15 38//15
f 41//14 29//14 30//14
f 42//15 40//15 39//15
f 30//14 21//14 41//14
f 42//15 31//15 40//15
f 21//16 31//16 32//16 22//16
f 22//17 32//17 33//17 23//17
f 23//18 33//18 34//18 24//18
f 24//19 34//19 35//19 25//19
f 25//20 35//20 36//20 26//20
f 26//21 36//21 37//21 27//21
f 27//22 37//22 38//22 28//22
f 28//23 38//23 39//23 29//23
f 29//24 39//24 40//24 30//24
f 31//25 21//25 30//25 40//25
o tire_FR_Cylinder.002
v 0.334398 0.536959 0.135362
v 0.334398 0.579890 0.157784
v 0.334398 0.627480 0.150058
v 0.334398 0.661550 0.115136
v 0.334398 0.669087 0.066356
v 0.334398 0.647213 0.022351
v 0.334398 0.604282 -0.000071
v 0.334398 0.556692 0.007655
v 0.334398 0.522622 0.042578
v 0.334398 0.515084 0.091357
v 0.372823 0.536959 0.135362
v 0.372823 0.579890 0.157784
v 0.372823 0.627480 0.150058
v 0.372823 0.661550 0.115135
v 0.372823 0.669087 0.066355
v 0.372823 0.647213 0.022351
v 0.372823 0.604281 -0.000071
v 0.372823 0.556692 0.007655
v 0.372823 0.522622 0.042578
v 0.372823 0.515084 0.091358
v 0.334398 0.592086 0.078857
v 0.372823 0.592086 0.078857
vn -0.000001 -0.462935 0.886392
vn -0.000002 -0.895466 0.445131
usemtl Material.005
s off
f 63//14 43//14 44//14
f 64//15 54//15 53//15
f 63//14 44//14 45//14
f 64//15 55//15 54//15
f 63//14 45//14 46//14
f 64//15 56//15 55//15
f 63//14 46//14 47//14
f 64//15 57//15 56//15
f 63//14 47//14 48//14
f 64//15 58//15 57//15
f 63//14 48//14 49//14
f 64//15 59//15 58//15
f 63//14 49//14 50//14
f 64//15 60//15 59//15
f 63//14 50//14 51//14
f 64//15 61//15 60//15
f 63//14 51//14 52//14
f 64//15 62//15 61//15
f 52//14 43//14 63//14
f 64//15 53//15 62//15
f 43//26 53//26 54//26 44//26
f 44//17 54//17 55//17 45//17
f 45//18 55//18 56//18 46//18
f 46//19 56//19 57//19 47//19
f 47//20 57//20 58//20 48//20
f 48//21 58//21 59//21 49//21
f 49//22 59//22 60//22 50//22
f 50//23 60//23 61//23 51//23
f 51//24 61//24 62//24 52//24
f 53//27 43//27 52//27 62//27
o tire_RR_Cylinder.001
v 0.389140 0.044321 0.286585
v 0.389140 0.129716 0.333915
v 0.389140 0.224376 0.317606
v 0.389140 0.292146 0.243889
v 0.389140 0.307139 0.140920
v 0.389140 0.263628 0.048031
v 0.389140 0.178233 0.000702
v 0.389140 0.083573 0.017010
v 0.389140 0.015803 0.090728
v 0.389140 0.000810 0.193696
v 0.470250 0.044321 0.286585
v 0.470250 0.129716 0.333915
v 0.470250 0.224377 0.317606
v 0.470250 0.292146 0.243889
v 0.470250 0.307139 0.140920
v 0.470250 0.263628 0.048031
v 0.470250 0.178233 0.000702
v 0.470250 0.083572 0.017011
v 0.470250 0.015803 0.090728
v 0.470250 0.000810 0.193697
v 0.389140 0.153975 0.167308
v 0.470250 0.153975 0.167308
vn -0.000000 -0.484765 0.874644
vn 0.000000 0.169784 0.985481
vn 0.000000 0.736182 0.676784
vn 0.000000 0.989565 0.144085
vn 0.000000 0.905575 -0.424186
vn 0.000000 0.484765 -0.874645
vn -0.000000 -0.169785 -0.985481
vn 0.000000 -0.736183 -0.676783
vn -0.000000 -0.989565 -0.144084
vn -0.000001 -0.905575 0.424187
usemtl Material.002
s off
f 85//14 65//14 66//14
f 86//15 76//15 75//15
f 85//14 66//14 67//14
f 86//15 77//15 76//15
f 85//14 67//14 68//14
f 86//15 78//15 77//15
f 85//14 68//14 69//14
f 86//15 79//15 78//15
f 85//14 69//14 70//14
f 86//15 80//15 79//15
f 85//14 70//14 71//14
f 86//15 81//15 80//15
f 85//14 71//14 72//14
f 86//15 82//15 81//15
f 85//14 72//14 73//14
f 86//15 83//15 82//15
f 85//14 73//14 74//14
f 86//15 84//15 83//15
f 74//14 65//14 85//14
f 86//15 75//15 84//15
f 65//28 75//28 76//28 66//28
f 66//29 76//29 77//29 67//29
f 67//30 77//30 78//30 68//30
f 68//31 78//31 79//31 69//31
f 69//32 79//32 80//32 70//32
f 70//33 80//33 81//33 71//33
f 71//34 81//34 82//34 72//34
f 72//35 82//35 83//35 73//35
f 73//36 83//36 84//36 74//36
f 75//37 65//37 74//37 84//37
o tire_RL_Cylinder
v 0.030831 0.044321 0.286585
v 0.030831 0.129716 0.333915
v 0.030831 0.224376 0.317606
v 0.030831 0.292146 0.243889
v 0.030831 0.307139 0.140920
v 0.030831 0.263628 0.048031
v 0.030831 0.178233 0.000702
v 0.030831 0.083572 0.017010
v 0.030831 0.015803 0.090728
v 0.030831 0.000810 0.193696
v 0.111941 0.044321 0.286585
v 0.111941 0.129716 0.333915
v 0.111941 0.224376 0.317606
v 0.111941 0.292146 0.243889
v 0.111941 0.307138 0.140920
v 0.111941 0.263628 0.048031
v 0.111941 0.178233 0.000702
v 0.111941 0.083572 0.017011
v 0.111941 0.015803 0.090728
v 0.111941 0.000810 0.193697
v 0.030831 0.153974 0.167308
v 0.111941 0.153974 0.167308
vn 0.000000 0.736182 0.676783
usemtl Material.001
s off
f 107//14 87//14 88//14
f 108//15 98//15 97//15
f 107//14 88//14 89//14
f 108//15 99//15 98//15
f 107//14 89//14 90//14
f 108//15 100//15 99//15
f 107//14 90//14 91//14
f 108//15 101//15 100//15
f 107//14 91//14 92//14
f 108//15 102//15 101//15
f 107//14 92//14 93//14
f 108//15 103//15 102//15
f 107//14 93//14 94//14
f 108//15 104//15 103//15
f 107//14 94//14 95//14
f 108//15 105//15 104//15
f 107//14 95//14 96//14
f 108//15 106//15 105//15
f 96//14 87//14 107//14
f 108//15 97//15 106//15
f 87//28 97//28 98//28 88//28
f 88//29 98//29 99//29 89//29
f 89//38 99//38 100//38 90//38
f 90//31 100//31 101//31 91//31
f 91//32 101//32 102//32 92//32
f 92//33 102//33 103//33 93//33
f 93//34 103//34 104//34 94//34
f 94//35 104//35 105//35 95//35
f 95//36 105//36 106//36 96//36
f 97//37 87//37 96//37 106//37
o body_Cube
v 0.112100 0.051259 0.123050
v 0.165120 0.655580 0.123050
v 0.334810 0.655580 0.123050
v 0.387830 0.051259 0.123050
v 0.112100 0.051260 0.356197
v 0.165120 0.655580 0.275258
v 0.334810 0.655580 0.275258
v 0.387830 0.051259 0.356197
vn 0.000000 0.132749 0.991150
vn -0.996173 0.087400 -0.000000
vn 0.000001 1.000000 -0.000000
vn 0.996173 0.087399 -0.000000
vn -0.000000 -1.000000 0.000000
usemtl Material
s off
f 109//1 110//1 111//1 112//1
f 113//39 116//39 115//39 114//39
f 109//40 113//40 114//40 110//40
f 110//41 114//41 115//41 111//41
f 111//42 115//42 116//42 112//42
f 113//43 109//43 112//43 116//43
