# Blender3D v248 OBJ File: tractor.blend
# www.blender3d.org
mtllib tractor.mtl
o Cylinder.003
v 0.268375 0.321101 -0.732415
v 0.268375 0.361780 -0.810304
v 0.268375 0.347763 -0.896645
v 0.268375 0.284404 -0.958458
v 0.268375 0.195904 -0.972133
v 0.268375 0.116067 -0.932447
v 0.268375 0.075388 -0.854558
v 0.268375 0.089405 -0.768217
v 0.268375 0.152764 -0.706404
v 0.268375 0.241264 -0.692729
v 0.338088 0.321101 -0.732415
v 0.338088 0.361780 -0.810305
v 0.338088 0.347763 -0.896645
v 0.338088 0.284404 -0.958458
v 0.338088 0.195904 -0.972133
v 0.338088 0.116067 -0.932447
v 0.338088 0.075388 -0.854557
v 0.338088 0.089405 -0.768217
v 0.338088 0.152764 -0.706404
v 0.338088 0.241264 -0.692729
v 0.268375 0.218584 -0.832431
v 0.338088 0.218584 -0.832431
vn -1.000000 0.000000 0.000000
vn 1.000000 0.000000 -0.000000
vn 0.000001 0.445132 0.895465
vn -0.000002 0.445130 0.895466
vn -0.000002 -0.152707 0.988272
vn 0.000002 -0.152704 0.988272
vn -0.000002 -0.698320 0.715786
vn 0.000001 -0.698318 0.715788
vn -0.000002 -0.987077 0.160248
vn 0.000001 -0.987076 0.160250
vn -0.000002 -0.886392 -0.462935
vn 0.000002 -0.886393 -0.462933
vn -0.000001 -0.445130 -0.895466
vn 0.000001 -0.445131 -0.895465
vn -0.000000 0.152707 -0.988272
vn 0.000001 0.152706 -0.988272
vn -0.000001 0.698320 -0.715786
vn 0.000001 0.698319 -0.715787
vn -0.000000 0.987077 -0.160248
vn 0.000001 0.987077 -0.160249
vn -0.000000 0.886392 0.462935
vn 0.000001 0.886393 0.462934
g Cylinder.003_Cylinder.003_Material.004
usemtl Material.004
s off
f 21//1 1//1 2//1
f 22//2 12//2 11//2
f 21//1 2//1 3//1
f 22//2 13//2 12//2
f 21//1 3//1 4//1
f 22//2 14//2 13//2
f 21//1 4//1 5//1
f 22//2 15//2 14//2
f 21//1 5//1 6//1
f 22//2 16//2 15//2
f 21//1 6//1 7//1
f 22//2 17//2 16//2
f 21//1 7//1 8//1
f 22//2 18//2 17//2
f 21//1 8//1 9//1
f 22//2 19//2 18//2
f 21//1 9//1 10//1
f 22//2 20//2 19//2
f 10//1 1//1 21//1
f 22//2 11//2 20//2
f 11//3 1//3 20//3
f 1//4 10//4 20//4
f 9//5 19//5 10//5
f 19//6 20//6 10//6
f 8//7 18//7 9//7
f 18//8 19//8 9//8
f 7//9 17//9 8//9
f 17//10 18//10 8//10
f 6//11 16//11 7//11
f 16//12 17//12 7//12
f 5//13 15//13 6//13
f 15//14 16//14 6//14
f 4//15 14//15 5//15
f 14//16 15//16 5//16
f 3//17 13//17 4//17
f 13//18 14//18 4//18
f 2//19 12//19 3//19
f 12//20 13//20 3//20
f 1//21 11//21 2//21
f 11//22 12//22 2//22
o Cylinder.002
v 0.648210 0.321101 -0.732415
v 0.648210 0.361780 -0.810304
v 0.648210 0.347763 -0.896645
v 0.648210 0.284404 -0.958458
v 0.648210 0.195904 -0.972133
v 0.648210 0.116067 -0.932447
v 0.648210 0.075388 -0.854558
v 0.648210 0.089405 -0.768217
v 0.648210 0.152764 -0.706404
v 0.648210 0.241264 -0.692729
v 0.717923 0.321101 -0.732415
v 0.717923 0.361780 -0.810305
v 0.717923 0.347763 -0.896645
v 0.717923 0.284404 -0.958458
v 0.717923 0.195904 -0.972133
v 0.717923 0.116067 -0.932447
v 0.717923 0.075388 -0.854557
v 0.717923 0.089405 -0.768217
v 0.717923 0.152764 -0.706404
v 0.717923 0.241264 -0.692729
v 0.648210 0.218584 -0.832431
v 0.717923 0.218584 -0.832431
g Cylinder.002_Cylinder.002_Material.005
usemtl Material.005
s off
f 43//1 23//1 24//1
f 44//2 34//2 33//2
f 43//1 24//1 25//1
f 44//2 35//2 34//2
f 43//1 25//1 26//1
f 44//2 36//2 35//2
f 43//1 26//1 27//1
f 44//2 37//2 36//2
f 43//1 27//1 28//1
f 44//2 38//2 37//2
f 43//1 28//1 29//1
f 44//2 39//2 38//2
f 43//1 29//1 30//1
f 44//2 40//2 39//2
f 43//1 30//1 31//1
f 44//2 41//2 40//2
f 43//1 31//1 32//1
f 44//2 42//2 41//2
f 32//1 23//1 43//1
f 44//2 33//2 42//2
f 33//3 23//3 42//3
f 23//4 32//4 42//4
f 31//5 41//5 32//5
f 41//6 42//6 32//6
f 30//7 40//7 31//7
f 40//8 41//8 31//8
f 29//9 39//9 30//9
f 39//10 40//10 30//10
f 28//11 38//11 29//11
f 38//12 39//12 29//12
f 27//13 37//13 28//13
f 37//14 38//14 28//14
f 26//15 36//15 27//15
f 36//16 37//16 27//16
f 25//17 35//17 26//17
f 35//18 36//18 26//18
f 24//19 34//19 25//19
f 34//20 35//20 25//20
f 23//21 33//21 24//21
f 33//22 34//22 24//22
o Cylinder.001
v 0.749190 0.592263 -0.085797
v 0.749190 0.678131 -0.240727
v 0.749190 0.648543 -0.412467
v 0.749190 0.514800 -0.535420
v 0.749190 0.327986 -0.562621
v 0.749190 0.159460 -0.483680
v 0.749190 0.073591 -0.328751
v 0.749190 0.103179 -0.157010
v 0.749190 0.236923 -0.034058
v 0.749190 0.423736 -0.006857
v 0.896346 0.592263 -0.085797
v 0.896346 0.678132 -0.240727
v 0.896346 0.648543 -0.412467
v 0.896346 0.514799 -0.535420
v 0.896346 0.327986 -0.562621
v 0.896346 0.159459 -0.483680
v 0.896346 0.073591 -0.328750
v 0.896346 0.103180 -0.157010
v 0.896346 0.236924 -0.034057
v 0.896346 0.423737 -0.006857
v 0.749190 0.375861 -0.284739
v 0.896346 0.375861 -0.284739
vn 0.000001 0.424187 0.905574
vn -0.000001 0.424186 0.905575
vn -0.000002 -0.144086 0.989565
vn 0.000002 -0.144083 0.989566
vn -0.000001 -0.676784 0.736182
vn 0.000002 -0.676782 0.736184
vn -0.000002 -0.985481 0.169784
vn 0.000002 -0.985481 0.169786
vn -0.000001 -0.874644 -0.484766
vn 0.000002 -0.874645 -0.484763
vn -0.000001 -0.424186 -0.905575
vn 0.000001 -0.424187 -0.905575
vn -0.000001 0.144086 -0.989565
vn 0.000001 0.144084 -0.989565
vn -0.000001 0.676784 -0.736182
vn 0.000001 0.676783 -0.736183
vn -0.000001 0.985481 -0.169784
vn 0.000000 0.985481 -0.169785
vn -0.000000 0.874644 0.484766
vn 0.000001 0.874645 0.484765
g Cylinder.001_Cylinder.001_Material.002
usemtl Material.002
s off
f 65//1 45//1 46//1
f 66//2 56//2 55//2
f 65//1 46//1 47//1
f 66//2 57//2 56//2
f 65//1 47//1 48//1
f 66//2 58//2 57//2
f 65//1 48//1 49//1
f 66//2 59//2 58//2
f 65//1 49//1 50//1
f 66//2 60//2 59//2
f 65//1 50//1 51//1
f 66//2 61//2 60//2
f 65//1 51//1 52//1
f 66//2 62//2 61//2
f 65//1 52//1 53//1
f 66//2 63//2 62//2
f 65//1 53//1 54//1
f 66//2 64//2 63//2
f 54//1 45//1 65//1
f 66//2 55//2 64//2
f 55//23 45//23 64//23
f 45//24 54//24 64//24
f 53//25 63//25 54//25
f 63//26 64//26 54//26
f 52//27 62//27 53//27
f 62//28 63//28 53//28
f 51//29 61//29 52//29
f 61//30 62//30 52//30
f 50//31 60//31 51//31
f 60//32 61//32 51//32
f 49//33 59//33 50//33
f 59//34 60//34 50//34
f 48//35 58//35 49//35
f 58//36 59//36 49//36
f 47//37 57//37 48//37
f 57//38 58//38 48//38
f 46//39 56//39 47//39
f 56//40 57//40 47//40
f 45//41 55//41 46//41
f 55//42 56//42 46//42
o Cylinder
v 0.097455 0.592263 -0.085797
v 0.097455 0.678131 -0.240726
v 0.097455 0.648543 -0.412467
v 0.097455 0.514800 -0.535420
v 0.097455 0.327986 -0.562621
v 0.097455 0.159460 -0.483680
v 0.097455 0.073591 -0.328751
v 0.097455 0.103179 -0.157010
v 0.097455 0.236923 -0.034057
v 0.097455 0.423736 -0.006856
v 0.244611 0.592263 -0.085797
v 0.244611 0.678132 -0.240727
v 0.244611 0.648543 -0.412467
v 0.244611 0.514799 -0.535420
v 0.244611 0.327986 -0.562621
v 0.244611 0.159459 -0.483680
v 0.244611 0.073591 -0.328750
v 0.244611 0.103180 -0.157009
v 0.244611 0.236924 -0.034057
v 0.244611 0.423737 -0.006857
v 0.097455 0.375861 -0.284739
v 0.244611 0.375861 -0.284739
g Cylinder_Cylinder_Material.001
usemtl Material.001
s off
f 87//1 67//1 68//1
f 88//2 78//2 77//2
f 87//1 68//1 69//1
f 88//2 79//2 78//2
f 87//1 69//1 70//1
f 88//2 80//2 79//2
f 87//1 70//1 71//1
f 88//2 81//2 80//2
f 87//1 71//1 72//1
f 88//2 82//2 81//2
f 87//1 72//1 73//1
f 88//2 83//2 82//2
f 87//1 73//1 74//1
f 88//2 84//2 83//2
f 87//1 74//1 75//1
f 88//2 85//2 84//2
f 87//1 75//1 76//1
f 88//2 86//2 85//2
f 76//1 67//1 87//1
f 88//2 77//2 86//2
f 77//23 67//23 86//23
f 67//24 76//24 86//24
f 75//25 85//25 76//25
f 85//26 86//26 76//26
f 74//27 84//27 75//27
f 84//28 85//28 75//28
f 73//29 83//29 74//29
f 83//30 84//30 74//30
f 72//31 82//31 73//31
f 82//32 83//32 73//32
f 71//33 81//33 72//33
f 81//34 82//34 72//34
f 70//35 80//35 71//35
f 80//36 81//36 71//36
f 69//37 79//37 70//37
f 79//38 80//38 70//38
f 68//39 78//39 69//39
f 78//40 79//40 69//40
f 67//41 77//41 68//41
f 77//42 78//42 68//42
o Cube.001
v 0.646517 0.544925 -0.105888
v 0.646517 0.544925 -0.606140
v 0.328527 0.544925 -0.606139
v 0.328527 0.544925 -0.105888
v 0.646518 0.810538 -0.105888
v 0.587253 0.805465 -0.478595
v 0.387792 0.805465 -0.478595
v 0.328527 0.810538 -0.105888
vn -0.000001 -0.000000 -1.000000
vn 0.975092 -0.221802 -0.000000
vn 0.987593 0.000000 0.157038
vn 0.000000 -0.439682 0.898153
vn 0.000001 -0.439683 0.898153
vn -0.987592 0.000000 0.157039
vn -0.975092 -0.221802 0.000000
vn 0.000000 -0.999907 0.013611
vn 0.000000 1.000000 0.000000
g Cube.001_Cube.001_Material.003
usemtl Material.003
s off
f 93//43 89//43 92//43
f 93//43 92//43 96//43
f 91//44 95//44 92//44
f 95//45 96//45 92//45
f 90//46 94//46 91//46
f 94//47 95//47 91//47
f 89//48 93//48 94//48
f 89//49 94//49 90//49
f 93//50 96//50 94//50
f 96//50 95//50 94//50
f 89//51 90//51 91//51
f 89//51 91//51 92//51
o Cube
v 0.244899 0.220223 -0.098385
v 0.341092 0.220223 -0.848763
v 0.648957 0.220223 -0.848763
v 0.745151 0.220223 -0.098385
v 0.244899 0.592379 -0.098385
v 0.341092 0.567012 -0.848763
v 0.648957 0.567012 -0.848763
v 0.745151 0.592379 -0.098385
vn -0.000000 0.000000 1.000000
vn 0.991883 -0.000000 -0.127153
vn 0.000000 -0.000000 -1.000000
vn 0.000001 0.000000 -1.000000
vn -0.991883 -0.000000 -0.127153
vn 0.000000 0.999429 -0.033787
vn 0.000000 -1.000000 0.000000
g Cube_Cube_Material
usemtl Material
s off
f 101//52 97//52 100//52
f 101//52 100//52 104//52
f 99//53 103//53 100//53
f 103//53 104//53 100//53
f 98//54 102//54 99//54
f 102//55 103//55 99//55
f 97//56 101//56 102//56
f 97//56 102//56 98//56
f 101//57 104//57 103//57
f 101//57 103//57 102//57
f 97//58 98//58 99//58
f 97//58 99//58 100//58
