<?xml version="1.0" encoding="UTF-8" standalone="no"?>
<!-- Created with Inkscape (http://www.inkscape.org/) -->

<svg
   xmlns:dc="http://purl.org/dc/elements/1.1/"
   xmlns:cc="http://creativecommons.org/ns#"
   xmlns:rdf="http://www.w3.org/1999/02/22-rdf-syntax-ns#"
   xmlns:svg="http://www.w3.org/2000/svg"
   xmlns="http://www.w3.org/2000/svg"
   xmlns:xlink="http://www.w3.org/1999/xlink"
   xmlns:sodipodi="http://sodipodi.sourceforge.net/DTD/sodipodi-0.dtd"
   xmlns:inkscape="http://www.inkscape.org/namespaces/inkscape"
   width="64"
   height="64"
   id="svg3025"
   version="1.1"
   inkscape:version="0.48.4 r9939"
   sodipodi:docname="New document 2">
  <defs
     id="defs3027">
    <linearGradient
       inkscape:collect="always"
       xlink:href="#linearGradient3018"
       id="linearGradient3024"
       x1="152.73657"
       y1="56.257801"
       x2="96.736572"
       y2="56.257801"
       gradientUnits="userSpaceOnUse" />
    <linearGradient
       id="linearGradient3018">
      <stop
         style="stop-color:#ffffff;stop-opacity:1;"
         offset="0"
         id="stop3020" />
      <stop
         style="stop-color:#d7d7d7;stop-opacity:1;"
         offset="1"
         id="stop3022" />
    </linearGradient>
  </defs>
  <sodipodi:namedview
     id="base"
     pagecolor="#ffffff"
     bordercolor="#666666"
     borderopacity="1.0"
     inkscape:pageopacity="0.0"
     inkscape:pageshadow="2"
     inkscape:zoom="7.9195959"
     inkscape:cx="46.084566"
     inkscape:cy="53.191237"
     inkscape:document-units="px"
     inkscape:current-layer="layer1"
     showgrid="false"
     inkscape:window-width="1600"
     inkscape:window-height="1180"
     inkscape:window-x="78"
     inkscape:window-y="-3"
     inkscape:window-maximized="1" />
  <metadata
     id="metadata3030">
    <rdf:RDF>
      <cc:Work
         rdf:about="">
        <dc:format>image/svg+xml</dc:format>
        <dc:type
           rdf:resource="http://purl.org/dc/dcmitype/StillImage" />
        <dc:title></dc:title>
      </cc:Work>
    </rdf:RDF>
  </metadata>
  <g
     inkscape:label="Layer 1"
     inkscape:groupmode="layer"
     id="layer1"
     transform="translate(0,-988.36218)">
    <path
       style="fill:#008000;stroke:#000000;stroke-width:1px;stroke-linecap:butt;stroke-linejoin:miter;stroke-opacity:1"
       d="m 0,988.3623 0,63.9999 64,0 0,-63.9999 z"
       id="path2987"
       inkscape:connector-curvature="0"
       sodipodi:nodetypes="ccccc" />
    <g
       id="g3068"
       transform="matrix(0.90935148,0,0,0.90935148,1.5529644,93.254647)">
      <path
         style="fill:#6c5353;stroke:none"
         d="m 36.75587,1020.3016 -3.11177,10.4932 4.192631,0 z"
         id="path2996"
         inkscape:connector-curvature="0" />
      <path
         inkscape:connector-curvature="0"
         id="path2992"
         d="m 20.770018,1020.3016 -3.111771,10.4932 4.192631,0 z"
         style="fill:#6c5353;stroke:none" />
      <path
         style="fill:#6c5353;stroke:none"
         d="m 24.962648,1020.3016 -3.11177,10.4932 4.192631,0 z"
         id="path2994"
         inkscape:connector-curvature="0" />
      <path
         inkscape:connector-curvature="0"
         id="path2998"
         d="m 42.260146,1020.3016 -3.111771,10.4932 4.192631,0 z"
         style="fill:#6c5353;stroke:none" />
      <path
         transform="matrix(0.65582206,0,0,0.65582206,-50.146029,982.02444)"
         d="m 152,56 c 0,8.836556 -12.53603,16 -28,16 -15.46397,0 -28,-7.163444 -28,-16 0,-8.836556 12.53603,-16 28,-16 15.46397,0 28,7.163444 28,16 z"
         sodipodi:ry="16"
         sodipodi:rx="28"
         sodipodi:cy="56"
         sodipodi:cx="124"
         id="path2986"
         style="fill:url(#linearGradient3024);fill-opacity:1;fill-rule:nonzero;stroke:none"
         sodipodi:type="arc" />
      <path
         sodipodi:open="true"
         sodipodi:end="9.424778"
         sodipodi:start="3.403392"
         transform="matrix(0.61183802,0.33968528,-0.23612879,0.88016528,-29.908455,923.44207)"
         d="m 136.40889,50.964724 c 1.7153,-2.133864 8.29534,-3.400195 14.69694,-2.828427 6.40159,0.571767 10.20058,2.765115 8.48528,4.898979 -1.7153,2.133864 -8.29534,3.400195 -14.69694,2.828427 C 139.64797,55.395132 136,53.810423 136,52"
         sodipodi:ry="4"
         sodipodi:rx="12"
         sodipodi:cy="52"
         sodipodi:cx="148"
         id="path2988"
         style="fill:#6c5353;fill-opacity:1;fill-rule:nonzero;stroke:none"
         sodipodi:type="arc" />
      <path
         transform="matrix(0.29352814,0,0,0.22106935,37.971233,993.11063)"
         d="m 32,108 c 0,2.20914 -1.790861,4 -4,4 -2.209139,0 -4,-1.79086 -4,-4 0,-2.20914 1.790861,-4 4,-4 2.209139,0 4,1.79086 4,4 z"
         sodipodi:ry="4"
         sodipodi:rx="4"
         sodipodi:cy="108"
         sodipodi:cx="28"
         id="path3003"
         style="fill:#000000;fill-opacity:1;fill-rule:nonzero;stroke:none"
         sodipodi:type="arc" />
      <path
         transform="matrix(0.14772498,-0.63896785,0.63896785,0.14772498,-29.090514,1069.8813)"
         d="M 98,46.5 C 98,47.880712 93.075132,49 87,49 80.924868,49 76,47.880712 76,46.5 76,45.119288 80.924868,44 87,44 c 6.075132,0 11,1.119288 11,2.5 z"
         sodipodi:ry="2.5"
         sodipodi:rx="11"
         sodipodi:cy="46.5"
         sodipodi:cx="87"
         id="path3007"
         style="fill:#d7d7d7;fill-opacity:1;fill-rule:nonzero;stroke:none"
         sodipodi:type="arc" />
      <path
         transform="matrix(0.05683291,-0.0826502,0.3911281,0.26895215,36.998872,1035.8501)"
         d="m 192,12 c 0,2.209139 -1.79086,4 -4,4 -2.20914,0 -4,-1.790861 -4,-4 0,-2.209139 1.79086,-4 4,-4 2.20914,0 4,1.790861 4,4 z"
         sodipodi:ry="4"
         sodipodi:rx="4"
         sodipodi:cy="12"
         sodipodi:cx="188"
         id="path3012"
         style="fill:#000000;fill-opacity:1;fill-rule:nonzero;stroke:none"
         sodipodi:type="arc" />
      <path
         sodipodi:type="arc"
         style="fill:#ffffff;fill-opacity:1;fill-rule:nonzero;stroke:#916f6f"
         id="path3014"
         sodipodi:cx="87"
         sodipodi:cy="46.5"
         sodipodi:rx="11"
         sodipodi:ry="2.5"
         d="M 98,46.5 C 98,47.880712 93.075132,49 87,49 80.924868,49 76,47.880712 76,46.5 76,45.119288 80.924868,44 87,44 c 6.075132,0 11,1.119288 11,2.5 z"
         transform="matrix(0.063502,-0.49900342,0.55809994,0.04157246,10.11125,1061.3845)" />
      <path
         sodipodi:type="arc"
         style="fill:#000000;fill-opacity:1;fill-rule:nonzero;stroke:none"
         id="path3016"
         sodipodi:cx="28"
         sodipodi:cy="108"
         sodipodi:rx="4"
         sodipodi:ry="4"
         d="m 32,108 c 0,2.20914 -1.790861,4 -4,4 -2.209139,0 -4,-1.79086 -4,-4 0,-2.20914 1.790861,-4 4,-4 2.209139,0 4,1.79086 4,4 z"
         transform="matrix(0.29352814,0,0,0.22106935,40.988356,993.11063)" />
    </g>
  </g>
</svg>
